<?xml version="1.0" encoding="utf-8"?>
<!-- Generator: Adobe Illustrator 25.2.3, SVG Export Plug-In . SVG Version: 6.00 Build 0)  -->
<svg version="1.1" id="Layer_1" xmlns="http://www.w3.org/2000/svg" xmlns:xlink="http://www.w3.org/1999/xlink" x="0px" y="0px"
	 width="222px" height="83px" viewBox="0 0 222 83" style="enable-background:new 0 0 222 83;" xml:space="preserve">
<style type="text/css">
	.st0{fill:#FFFFFF;}
	.st1{fill:#D92128;}
	.st2{fill:#626467;}
	.st3{fill:#626466;}
	.st4{fill:#EC268F;}
</style>
<g id="Group_74" transform="translate(-104.647 -103.524)">
	<g id="Group_69" transform="translate(104.647 103.524)">
		<circle id="Ellipse_1" class="st0" cx="41.3" cy="41.2" r="34.3"/>
		<g id="Group_68" transform="translate(0 0)">
			<path id="Path_1" class="st1" d="M78.8,33c-1.2-2.1-2.4-4-3.5-5.9c-0.5-2.1-1-4.3-1.6-6.7C72,14.6,69.3,11.3,63,9.2
				c-2.6-0.8-5.2-1.5-7.8-2.1c-1.8-1.1-3.7-2.3-5.8-3.5c-5.2-3-9.5-3.4-15.4-0.5c-2.4,1.2-4.7,2.5-6.9,4c-2.6,0.6-5.2,1.2-7.7,2.1
				c-6.3,2.1-9,5.4-10.6,11.2c-0.6,2.3-1.2,4.4-1.6,6.5c-1.5,2.3-2.8,4.6-4,7c-3,5.9-2.5,10.2,0.5,15.4c1.2,2.1,2.4,4,3.5,5.9
				c0.5,2.1,1,4.3,1.6,6.6c1.6,5.8,4.3,9.1,10.6,11.2c2.6,0.8,5.2,1.5,7.8,2.1c1.8,1.1,3.7,2.3,5.8,3.5c5.2,3,9.5,3.4,15.4,0.5
				c2.4-1.2,4.7-2.5,6.9-4c2.6-0.6,5.2-1.2,7.7-2.1c6.3-2.1,9-5.4,10.6-11.2c0.6-2.3,1.1-4.4,1.6-6.5c1.5-2.3,2.8-4.6,4-7
				C82.2,42.5,81.8,38.2,78.8,33z M41.3,75.5c-19,0-34.4-15.4-34.4-34.4S22.3,6.8,41.3,6.8s34.4,15.4,34.4,34.4c0,0,0,0,0,0
				C75.6,60.1,60.2,75.5,41.3,75.5L41.3,75.5z"/>
			<g id="Group_2" transform="translate(15.999 16.417)">
				<g id="Group_1">
					<rect id="Rectangle_1" x="16.5" y="2.8" class="st2" width="0.8" height="43.5"/>
					<rect id="Rectangle_2" x="24.9" y="1.2" class="st2" width="0.8" height="47"/>
					<rect id="Rectangle_3" x="33.4" y="2.8" class="st2" width="0.8" height="43.5"/>
					<rect id="Rectangle_4" x="41.8" y="5.7" class="st2" width="0.8" height="37.6"/>
					<rect id="Rectangle_5" x="8.1" y="5.7" class="st2" width="0.8" height="37.6"/>
					<rect id="Rectangle_6" x="6.6" y="7.5" class="st2" width="37.6" height="0.8"/>
					<rect id="Rectangle_7" x="3.7" y="15.9" class="st2" width="43.6" height="0.8"/>
					<rect id="Rectangle_8" x="1.3" y="24.4" class="st2" width="48" height="0.8"/>
					<rect id="Rectangle_9" x="3.7" y="32.8" class="st2" width="43.6" height="0.8"/>
					<rect id="Rectangle_10" x="6.6" y="41.2" class="st2" width="37.6" height="0.8"/>
					<rect id="Rectangle_11" x="23.6" y="5.5" class="st1" width="3.5" height="38.3"/>
					<rect id="Rectangle_12" x="5.8" y="22.8" class="st1" width="38.8" height="3.5"/>
					<path id="Path_2" class="st1" d="M5.8,17.4V21c0,0,27.2,2.2,33.8-13.5l-3.2-1.6C36.4,5.9,32.6,19.3,5.8,17.4"/>
				</g>
			</g>
			<g id="Group_3" transform="translate(7.173 7.233)">
				<circle id="Ellipse_2" class="st2" cx="34.1" cy="2.1" r="0.8"/>
				<path id="Path_3" class="st2" d="M31.8,2.2c0,0.5-0.3,0.9-0.7,0.9c-0.5,0-0.9-0.3-0.9-0.7c0-0.5,0.3-0.9,0.7-0.9c0,0,0,0,0,0
					C31.3,1.4,31.7,1.7,31.8,2.2z"/>
				<path id="Path_4" class="st2" d="M28.6,2.6c0.1,0.4-0.2,0.9-0.6,1c-0.4,0.1-0.9-0.2-1-0.6c-0.1-0.4,0.2-0.9,0.6-1c0,0,0,0,0,0
					C28.1,1.8,28.5,2.1,28.6,2.6z"/>
				<path id="Path_5" class="st2" d="M25.5,3.3c0.1,0.4-0.1,0.9-0.5,1c-0.4,0.1-0.9-0.1-1-0.5c-0.1-0.4,0.1-0.9,0.5-1
					C24.9,2.6,25.4,2.8,25.5,3.3C25.5,3.3,25.5,3.3,25.5,3.3z"/>
				<path id="Path_6" class="st2" d="M22.5,4.3c0.2,0.4,0,0.9-0.4,1.1c-0.4,0.2-0.9,0-1.1-0.4c-0.2-0.4,0-0.9,0.4-1.1c0,0,0,0,0,0
					C21.8,3.7,22.3,3.9,22.5,4.3z"/>
				<path id="Path_7" class="st2" d="M19.6,5.6c0.2,0.4,0.1,0.9-0.3,1.1c-0.4,0.2-0.9,0.1-1.1-0.3c-0.2-0.4-0.1-0.9,0.3-1.1
					c0,0,0,0,0,0C18.9,5,19.4,5.2,19.6,5.6z"/>
				<circle id="Ellipse_3" class="st2" cx="16.2" cy="7.6" r="0.8"/>
				<path id="Path_8" class="st2" d="M14.3,9c0.3,0.3,0.2,0.9-0.1,1.2c-0.3,0.3-0.9,0.2-1.2-0.1c-0.3-0.3-0.2-0.9,0.1-1.2
					C13.5,8.6,14,8.7,14.3,9C14.3,9,14.3,9,14.3,9z"/>
				<path id="Path_9" class="st2" d="M11.9,11.1c0.3,0.3,0.3,0.8,0,1.2c-0.3,0.3-0.8,0.3-1.2,0c-0.3-0.3-0.3-0.8,0-1.2l0,0
					C11,10.8,11.6,10.8,11.9,11.1z"/>
				<path id="Path_10" class="st2" d="M9.7,13.4c0.4,0.3,0.4,0.8,0.1,1.2S9.1,15,8.7,14.7c-0.4-0.3-0.4-0.8-0.1-1.2
					C8.9,13.2,9.4,13.2,9.7,13.4C9.7,13.4,9.7,13.4,9.7,13.4z"/>
				<circle id="Ellipse_4" class="st2" cx="7.4" cy="16.7" r="0.8"/>
				<path id="Path_11" class="st2" d="M6.2,18.7c0.4,0.2,0.6,0.7,0.4,1.1c-0.2,0.4-0.7,0.6-1.1,0.4C5,19.9,4.8,19.4,5,19
					C5.3,18.6,5.8,18.5,6.2,18.7C6.2,18.7,6.2,18.7,6.2,18.7z"/>
				<circle id="Ellipse_5" class="st2" cx="4.5" cy="22.3" r="0.8"/>
				<circle id="Ellipse_6" class="st2" cx="3.5" cy="25.3" r="0.8"/>
				<circle id="Ellipse_7" class="st2" cx="2.8" cy="28.4" r="0.8"/>
				<circle id="Ellipse_8" class="st2" cx="2.4" cy="31.5" r="0.8"/>
				<circle id="Ellipse_9" class="st2" cx="2.3" cy="34.7" r="0.8"/>
				<path id="Path_12" class="st2" d="M2.4,37.1c0.5-0.1,0.9,0.3,0.9,0.7c0.1,0.5-0.3,0.9-0.7,0.9c-0.5,0.1-0.9-0.3-0.9-0.7
					c0,0,0,0,0,0C1.6,37.5,2,37.1,2.4,37.1z"/>
				<path id="Path_13" class="st2" d="M2.9,40.2c0.4-0.1,0.9,0.2,1,0.6s-0.2,0.9-0.6,1c-0.4,0.1-0.9-0.2-1-0.6
					C2.2,40.7,2.4,40.3,2.9,40.2C2.9,40.2,2.9,40.2,2.9,40.2z"/>
				<path id="Path_14" class="st2" d="M3.7,43.3c0.4-0.1,0.9,0.1,1,0.5c0.1,0.4-0.1,0.9-0.5,1c-0.4,0.1-0.9-0.1-1-0.5
					C3,43.9,3.2,43.4,3.7,43.3L3.7,43.3z"/>
				<circle id="Ellipse_10" class="st2" cx="5.1" cy="47" r="0.8"/>
				<path id="Path_15" class="st2" d="M6.1,49.1C6.5,48.9,7,49,7.2,49.4s0.1,0.9-0.3,1.1c-0.4,0.2-0.9,0.1-1.1-0.3c0,0,0,0,0,0
					C5.6,49.8,5.7,49.3,6.1,49.1z"/>
				<path id="Path_16" class="st2" d="M7.8,51.8c0.4-0.3,0.9-0.2,1.2,0.2c0.3,0.4,0.2,0.9-0.2,1.2c-0.4,0.3-0.9,0.2-1.2-0.2
					C7.3,52.6,7.4,52.1,7.8,51.8C7.8,51.8,7.8,51.8,7.8,51.8z"/>
				<path id="Path_17" class="st2" d="M9.7,54.4c0.3-0.3,0.9-0.3,1.2,0.1c0.3,0.3,0.3,0.9-0.1,1.2c-0.3,0.3-0.9,0.3-1.2-0.1
					C9.3,55.2,9.3,54.7,9.7,54.4C9.7,54.4,9.7,54.4,9.7,54.4z"/>
				<circle id="Ellipse_11" class="st2" cx="12.4" cy="57.2" r="0.8"/>
				<path id="Path_18" class="st2" d="M14.2,58.8c0.3-0.4,0.8-0.4,1.2-0.2s0.4,0.8,0.2,1.2c-0.3,0.4-0.8,0.4-1.2,0.2c0,0,0,0,0,0
					C14,59.7,13.9,59.2,14.2,58.8z"/>
				<path id="Path_19" class="st2" d="M16.8,60.6c0.2-0.4,0.7-0.5,1.1-0.3c0.4,0.2,0.5,0.7,0.3,1.1s-0.7,0.5-1.1,0.3c0,0,0,0,0,0
					C16.7,61.5,16.5,61,16.8,60.6z"/>
				<path id="Path_20" class="st2" d="M19.5,62.2c0.2-0.4,0.7-0.6,1.1-0.4s0.6,0.7,0.4,1.1c-0.2,0.4-0.7,0.6-1.1,0.4c0,0,0,0,0,0
					C19.5,63.1,19.3,62.6,19.5,62.2z"/>
				<circle id="Ellipse_12" class="st2" cx="23.2" cy="63.8" r="0.8"/>
				<circle id="Ellipse_13" class="st2" cx="26.2" cy="64.8" r="0.8"/>
				<circle id="Ellipse_14" class="st2" cx="29.3" cy="65.4" r="0.8"/>
				<circle id="Ellipse_15" class="st2" cx="32.5" cy="65.7" r="0.8"/>
				<path id="Path_21" class="st2" d="M34.8,65.8c0-0.5,0.3-0.8,0.8-0.9s0.8,0.3,0.9,0.8s-0.3,0.8-0.8,0.9S34.9,66.2,34.8,65.8
					L34.8,65.8z"/>
				<path id="Path_22" class="st2" d="M38,65.5c-0.1-0.5,0.2-0.9,0.7-0.9s0.9,0.2,0.9,0.7c0.1,0.5-0.2,0.9-0.7,0.9
					C38.5,66.3,38.1,66,38,65.5C38,65.5,38,65.5,38,65.5z"/>
				<path id="Path_23" class="st2" d="M41.1,65c-0.1-0.4,0.2-0.9,0.6-1c0.4-0.1,0.9,0.2,1,0.6s-0.2,0.9-0.6,1c0,0,0,0,0,0
					C41.7,65.7,41.2,65.4,41.1,65z"/>
				<path id="Path_24" class="st2" d="M44.2,64.1c-0.2-0.4,0.1-0.9,0.5-1.1s0.9,0.1,1.1,0.5s-0.1,0.9-0.5,1.1c0,0,0,0,0,0
					C44.8,64.8,44.3,64.6,44.2,64.1z"/>
				<path id="Path_25" class="st2" d="M47.1,63c-0.2-0.4,0-0.9,0.4-1.1s0.9,0,1.1,0.4c0.2,0.4,0,0.9-0.4,1.1c0,0,0,0,0,0
					C47.8,63.6,47.3,63.4,47.1,63z"/>
				<path id="Path_26" class="st2" d="M50,61.5c-0.2-0.4-0.1-0.9,0.3-1.1c0.4-0.2,0.9-0.1,1.1,0.3s0.1,0.9-0.3,1.1c0,0,0,0,0,0
					C50.7,62,50.2,61.9,50,61.5z"/>
				<circle id="Ellipse_16" class="st2" cx="53.3" cy="59.3" r="0.8"/>
				<circle id="Ellipse_17" class="st2" cx="55.7" cy="57.3" r="0.8"/>
				<path id="Path_27" class="st2" d="M57.4,55.6c-0.3-0.3-0.4-0.8-0.1-1.2c0.3-0.3,0.8-0.4,1.2-0.1c0.3,0.3,0.4,0.8,0.1,1.2
					C58.3,55.9,57.7,55.9,57.4,55.6C57.4,55.6,57.4,55.6,57.4,55.6z"/>
				<path id="Path_28" class="st2" d="M59.4,53.2c-0.4-0.3-0.5-0.8-0.2-1.2c0.3-0.4,0.8-0.5,1.2-0.2c0.4,0.3,0.5,0.8,0.2,1.2
					C60.3,53.4,59.8,53.5,59.4,53.2C59.4,53.2,59.4,53.2,59.4,53.2z"/>
				<path id="Path_29" class="st2" d="M61.2,50.6c-0.4-0.2-0.5-0.7-0.3-1.1s0.7-0.5,1.1-0.3s0.5,0.7,0.3,1.1c0,0,0,0,0,0
					C62.1,50.7,61.6,50.8,61.2,50.6z"/>
				<path id="Path_30" class="st2" d="M62.7,47.8c-0.4-0.2-0.6-0.7-0.4-1.1c0.2-0.4,0.7-0.6,1.1-0.4c0.4,0.2,0.6,0.7,0.4,1.1
					C63.6,47.8,63.2,48,62.7,47.8C62.7,47.8,62.7,47.8,62.7,47.8z"/>
				<circle id="Ellipse_18" class="st2" cx="64.2" cy="44.1" r="0.8"/>
				<circle id="Ellipse_19" class="st2" cx="65.1" cy="41" r="0.8"/>
				<path id="Path_31" class="st2" d="M65.6,38.7c-0.5-0.1-0.8-0.5-0.7-0.9c0.1-0.5,0.5-0.8,0.9-0.7c0.5,0.1,0.8,0.5,0.7,0.9
					c0,0,0,0,0,0C66.4,38.5,66,38.8,65.6,38.7z"/>
				<path id="Path_32" class="st2" d="M65.9,35.6c-0.5,0-0.8-0.4-0.8-0.8c0-0.5,0.4-0.8,0.8-0.8c0.5,0,0.8,0.4,0.8,0.8c0,0,0,0,0,0
					C66.7,35.2,66.3,35.6,65.9,35.6z"/>
				<circle id="Ellipse_20" class="st2" cx="65.8" cy="31.6" r="0.8"/>
				<circle id="Ellipse_21" class="st2" cx="65.4" cy="28.4" r="0.8"/>
				<circle id="Ellipse_22" class="st2" cx="64.7" cy="25.3" r="0.8"/>
				<circle id="Ellipse_23" class="st2" cx="63.7" cy="22.3" r="0.8"/>
				<path id="Path_33" class="st2" d="M62.8,20.2c-0.4,0.2-0.9,0-1.1-0.4c-0.2-0.4,0-0.9,0.4-1.1c0.4-0.2,0.9,0,1.1,0.4
					C63.4,19.5,63.2,20,62.8,20.2C62.8,20.2,62.8,20.2,62.8,20.2z"/>
				<circle id="Ellipse_24" class="st2" cx="60.8" cy="16.7" r="0.8"/>
				<path id="Path_34" class="st2" d="M59.5,14.8c-0.4,0.3-0.9,0.2-1.2-0.1s-0.2-0.9,0.1-1.2c0.4-0.3,0.9-0.2,1.2,0.1
					C59.9,14,59.9,14.5,59.5,14.8C59.5,14.8,59.5,14.8,59.5,14.8z"/>
				<path id="Path_35" class="st2" d="M57.5,12.3c-0.3,0.3-0.8,0.3-1.2,0c-0.3-0.3-0.3-0.8,0-1.2s0.8-0.3,1.2,0c0,0,0,0,0,0
					C57.8,11.5,57.8,12,57.5,12.3z"/>
				<path id="Path_36" class="st2" d="M55.2,10.1c-0.3,0.3-0.8,0.4-1.2,0.1c-0.3-0.3-0.4-0.8-0.1-1.2c0.3-0.3,0.8-0.4,1.2-0.1
					C55.4,9.2,55.5,9.8,55.2,10.1C55.2,10.1,55.2,10.1,55.2,10.1z"/>
				<path id="Path_37" class="st2" d="M52.7,8.1c-0.3,0.4-0.8,0.5-1.1,0.2s-0.5-0.8-0.2-1.1c0.3-0.4,0.8-0.5,1.1-0.2
					C52.9,7.2,53,7.7,52.7,8.1C52.7,8.1,52.7,8.1,52.7,8.1z"/>
				<path id="Path_38" class="st2" d="M50.1,6.4c-0.2,0.4-0.7,0.5-1.1,0.3S48.4,6,48.6,5.6s0.7-0.5,1.1-0.3c0,0,0,0,0,0
					C50.1,5.5,50.3,6,50.1,6.4z"/>
				<path id="Path_39" class="st2" d="M47.2,4.9c-0.2,0.4-0.7,0.6-1.1,0.4c-0.4-0.2-0.6-0.7-0.4-1.1c0.2-0.4,0.7-0.6,1.1-0.4
					c0,0,0,0,0,0C47.2,4,47.4,4.5,47.2,4.9z"/>
				<path id="Path_40" class="st2" d="M44.3,3.8c-0.1,0.4-0.6,0.7-1,0.5c-0.4-0.1-0.7-0.6-0.5-1c0.1-0.4,0.6-0.7,1-0.5
					C44.2,2.9,44.4,3.3,44.3,3.8C44.3,3.8,44.3,3.8,44.3,3.8z"/>
				<circle id="Ellipse_25" class="st2" cx="40.4" cy="2.8" r="0.8"/>
				<circle id="Ellipse_26" class="st2" cx="37.3" cy="2.3" r="0.8"/>
			</g>
			<g id="Group_67" transform="translate(10.382 10.273)">
				<g id="Group_4" transform="translate(27.203 0.092)">
					<path id="Path_41" class="st3" d="M2.9,3.3L2.9,3.3H1.3l1.6-1.1l0,0L1.5,3.2L2.9,3.3L2.9,3.3c0.3-0.1,0.7-0.2,0.9-0.5
						c0.2-0.4,0.6-0.6,1-0.6v0.1c-0.4,0-0.8,0.2-1,0.5C3.6,3.1,3.3,3.3,2.9,3.3z"/>
					<path id="Path_42" class="st3" d="M4.9,2.3l-2,0l0,0L1.3,1.2h0.1l1.5,0.1c0.4,0,0.7,0.2,1,0.5l0,0L4,1.8C4.1,2,4.2,2.2,4.9,2.3
						L4.9,2.3z M2.9,2.2l1.6,0C4.3,2.2,4.1,2.1,3.9,1.8c0,0,0-0.1-0.1-0.1l0,0C3.6,1.5,3.3,1.3,2.9,1.3L1.5,1.2L2.9,2.2z"/>
				</g>
				<g id="Group_5" transform="translate(24.28 0.381)">
					<path id="Path_43" class="st3" d="M1.5,3.4L1.5,3.4L3,2.2l0,0L1.7,3.3l1.4-0.1C3.5,3.1,3.8,3,4,2.7C4.2,2.3,4.6,2,5,2l0,0.1
						C4.6,2.1,4.2,2.3,4,2.7C3.8,3,3.5,3.2,3.1,3.2L1.5,3.4z"/>
					<path id="Path_44" class="st3" d="M3,2.2L3,2.2l-1.7-1l0.1,0l1.5-0.1c0.4,0,0.8,0.1,1,0.4l0,0C4,1.6,4,1.6,4,1.6
						C4.2,1.8,4.3,2,5,2v0.1L3,2.2z M1.5,1.3L3,2.2L4.6,2C4.4,2,4.1,1.9,4,1.7c0,0-0.1-0.1-0.1-0.1C3.7,1.3,3.3,1.2,3,1.2H2.9
						L1.5,1.3z"/>
				</g>
				<g id="Group_6" transform="translate(21.407 0.878)">
					<path id="Path_45" class="st3" d="M1.7,3.5l1.4-1.4l0,0L1.9,3.4l1.4-0.3c0.4-0.1,0.7-0.3,0.8-0.6C4.3,2.2,4.6,1.9,5,1.8l0,0.1
						C4.6,2,4.3,2.2,4.2,2.6C4,2.9,3.7,3.1,3.3,3.2L1.7,3.5z"/>
					<path id="Path_46" class="st3" d="M3.1,2.2L3.1,2.2L1.3,1.5l0.1,0l1.5-0.2c0.4-0.1,0.8,0,1.1,0.3l0,0L4,1.5
						c0.2,0.2,0.5,0.3,0.8,0.3c0.1,0,0.1,0,0.2,0l0,0.1L3.1,2.2z M1.5,1.5l1.6,0.7l1.6-0.3C4.4,1.9,4.2,1.8,4,1.6
						c0,0-0.1-0.1-0.1-0.1l0,0c-0.3-0.2-0.6-0.3-1-0.2L1.5,1.5z"/>
				</g>
				<g id="Group_7" transform="translate(18.615 1.643)">
					<path id="Path_47" class="st3" d="M1.9,3.7l1.2-1.5l0,0L2.1,3.6l1.4-0.4C3.8,3,4.1,2.8,4.2,2.5C4.3,2.1,4.6,1.8,5,1.6l0,0.1
						C4.7,1.8,4.4,2.1,4.3,2.5C4.1,2.8,3.8,3.1,3.5,3.2L1.9,3.7z"/>
					<path id="Path_48" class="st3" d="M3.1,2.2L3.1,2.2L1.3,1.6l0.1,0l1.5-0.4c0.4-0.1,0.8-0.1,1.1,0.2l0,0c0,0,0.1,0,0.1,0.1
						c0.2,0.2,0.4,0.3,1,0.2l0,0.1L3.1,2.2z M1.5,1.7l1.7,0.5l1.6-0.5H4.7C4.4,1.7,4.2,1.7,4,1.5c0,0-0.1,0-0.1-0.1l0,0
						c-0.3-0.2-0.7-0.3-1-0.1L1.5,1.7z"/>
				</g>
				<g id="Group_8" transform="translate(15.932 2.675)">
					<path id="Path_49" class="st3" d="M2.1,3.8L2.1,3.8l1.1-1.6l0,0l-1,1.4l1.3-0.6C3.9,3,4.2,2.7,4.3,2.4C4.4,2,4.6,1.6,5,1.5
						l0,0.1C4.7,1.7,4.4,2,4.3,2.4C4.2,2.8,3.9,3,3.6,3.2L2.1,3.8z"/>
					<path id="Path_50" class="st3" d="M3.2,2.3L3.2,2.3L1.3,1.8l0.1,0l1.4-0.5c0.3-0.1,0.7-0.1,1.1,0l0,0c0,0,0.1,0,0.1,0.1
						c0.2,0.1,0.4,0.2,1,0.1l0,0.1L3.2,2.3z M1.5,1.8l1.7,0.4l1.5-0.6c-0.1,0-0.1,0-0.2,0C4.3,1.6,4.1,1.5,4,1.4c0,0-0.1,0-0.1-0.1
						l0,0c-0.3-0.2-0.7-0.2-1,0L1.5,1.8z"/>
				</g>
				<g id="Group_9" transform="translate(13.385 3.961)">
					<path id="Path_51" class="st3" d="M2.3,3.9l0.9-1.7l0.1,0L2.4,3.8l1.3-0.7C4,2.9,4.2,2.6,4.3,2.3c0-0.4,0.3-0.8,0.6-1l0,0
						c-0.4,0.2-0.6,0.6-0.6,1C4.3,2.7,4.1,3,3.7,3.1L2.3,3.9z"/>
					<path id="Path_52" class="st3" d="M3.2,2.3L3.2,2.3l-2-0.2l0.1,0l1.4-0.7c0.3-0.2,0.7-0.2,1.1-0.1l0,0l0.1,0.1
						c0.2,0.1,0.4,0.2,1,0l0,0.1L3.2,2.3z M1.5,2l1.7,0.2l1.5-0.8C4.4,1.5,4.1,1.5,3.9,1.4c0,0-0.1,0-0.1-0.1l0,0
						c-0.3-0.1-0.7-0.1-1,0.1L1.5,2z"/>
				</g>
				<g id="Group_10" transform="translate(11.001 5.456)">
					<path id="Path_53" class="st3" d="M2.5,4.1L2.5,4.1l0.8-1.8l0.1,0L2.6,3.9l1.2-0.8c0.3-0.2,0.5-0.5,0.6-0.9
						c0-0.4,0.2-0.8,0.5-1l0,0c-0.3,0.2-0.5,0.6-0.5,1C4.3,2.6,4.1,2.9,3.8,3.1L2.5,4.1z"/>
					<path id="Path_54" class="st3" d="M3.2,2.3L3.2,2.3l-2,0l0.1-0.1l1.3-0.8C3,1.2,3.4,1.1,3.7,1.3l0,0l0.1,0
						c0.2,0.1,0.4,0.2,1-0.1l0,0.1L3.2,2.3z M1.5,2.2l1.8,0l1.4-0.9c-0.2,0.1-0.5,0.1-0.8,0c0,0-0.1,0-0.1,0l0,0
						c-0.3-0.1-0.7,0-1,0.2L1.5,2.2z"/>
				</g>
				<g id="Group_11" transform="translate(8.8 7.072)">
					<path id="Path_55" class="st3" d="M2.6,4.3l0-0.1l0.5-1.8l0.1,0L2.7,4.1l1.1-0.9C4.1,3,4.3,2.6,4.3,2.3
						C4.3,1.9,4.4,1.4,4.7,1.2l0,0C4.5,1.5,4.3,1.9,4.4,2.3c0,0.4-0.2,0.7-0.5,1L2.6,4.3z"/>
					<path id="Path_56" class="st3" d="M1.3,2.7L1.3,2.7l1.3-1c0.3-0.2,0.7-0.3,1-0.3l0,0c0,0,0.1,0,0.1,0c0.2,0.1,0.5,0.1,1-0.2
						l0,0L3.2,2.5h0L1.3,2.7z M3.4,1.4c-0.3,0-0.6,0.1-0.8,0.3L1.5,2.6l1.8-0.2l1.3-1C4.3,1.5,4,1.5,3.7,1.5c0,0-0.1,0-0.1,0l0,0
						C3.5,1.4,3.5,1.4,3.4,1.4L3.4,1.4z"/>
				</g>
				<g id="Group_12" transform="translate(6.807 8.909)">
					<path id="Path_57" class="st3" d="M2.8,4.5l0-0.1l0.4-1.8l0.1,0L2.9,4.3l1-1c0.3-0.2,0.4-0.6,0.4-1c-0.1-0.4,0-0.8,0.3-1.1l0,0
						C4.3,1.5,4.2,1.9,4.3,2.3c0,0.4-0.1,0.7-0.4,1L2.8,4.5z"/>
					<path id="Path_58" class="st3" d="M1.3,3L1.3,3l1.2-1.1c0.3-0.3,0.6-0.4,1-0.4l0,0l0.1,0c0.3,0,0.5,0.1,1-0.3l0,0L3.2,2.6h0
						L1.3,3z M3.4,1.5C3,1.5,2.7,1.7,2.5,1.9l-1.1,1l1.7-0.3l1.2-1.2C4.1,1.6,3.8,1.6,3.6,1.6c0,0-0.1,0-0.1,0l0,0
						C3.4,1.5,3.4,1.5,3.4,1.5z"/>
				</g>
				<g id="Group_13" transform="translate(5.039 10.953)">
					<path id="Path_59" class="st3" d="M2.9,4.6l0-0.1l0.2-1.8l0.1,0L3,4.4l0.9-1.1c0.2-0.3,0.3-0.6,0.3-1C4,1.9,4.1,1.5,4.4,1.2
						l0,0C4.2,1.5,4.1,1.9,4.2,2.3c0.1,0.4,0,0.8-0.3,1L2.9,4.6z"/>
					<path id="Path_60" class="st3" d="M1.3,3.3L1.3,3.3l1.1-1.2c0.2-0.3,0.6-0.5,1-0.5l0,0c0,0,0.1,0,0.1,0c0.2,0,0.5,0,0.9-0.4
						l0,0L3.2,2.8h0L1.3,3.3z M3.3,1.6C3,1.7,2.6,1.8,2.4,2.1C2.3,2.3,1.6,3,1.4,3.2l1.7-0.5l1-1.3C4,1.6,3.8,1.7,3.6,1.7
						c0,0-0.1,0-0.1,0S3.4,1.7,3.3,1.6L3.3,1.6z"/>
				</g>
				<g id="Group_14" transform="translate(3.516 13.183)">
					<path id="Path_61" class="st3" d="M3,4.8V2.8h0.1v1.7l0.8-1.2c0.2-0.3,0.3-0.7,0.2-1C3.9,2,3.9,1.5,4.2,1.2l0.1,0
						C4,1.5,4,2,4.1,2.3c0.1,0.4,0,0.8-0.2,1.1L3,4.8z"/>
					<path id="Path_62" class="st3" d="M1.3,3.6L1.3,3.6l1-1.3c0.2-0.3,0.5-0.5,0.9-0.6l0,0c0,0,0.1,0,0.1,0c0.3,0,0.5,0,0.9-0.5
						l0,0L3.1,2.9h0L1.3,3.6z M3.1,1.8L3.1,1.8C2.8,1.8,2.5,2,2.3,2.3L1.4,3.5l1.6-0.7L4,1.4C3.8,1.6,3.5,1.8,3.3,1.7
						C3.2,1.8,3.2,1.8,3.1,1.8L3.1,1.8z"/>
				</g>
				<g id="Group_15" transform="translate(2.253 15.575)">
					<path id="Path_63" class="st3" d="M3.2,4.9l0-0.1L3,2.9l0.1,0l0.2,1.7l0.7-1.3c0.2-0.3,0.2-0.7,0.1-1C3.7,2,3.7,1.5,3.9,1.2
						l0.1,0C3.8,1.6,3.8,2,4,2.3c0.1,0.4,0.1,0.7-0.1,1.1L3.2,4.9z"/>
					<path id="Path_64" class="st3" d="M1.3,3.9L1.3,3.9l0.8-1.4c0.2-0.3,0.5-0.6,0.9-0.7l0,0c0,0,0.1,0,0.1,0
						c0.3,0,0.5-0.1,0.8-0.6l0.1,0L3,3h0L1.3,3.9z M2.9,1.9C2.6,1.9,2.3,2.2,2.1,2.5L1.4,3.7L3,2.9l0.8-1.5C3.6,1.7,3.3,1.8,3.1,1.8
						C3,1.8,3,1.8,2.9,1.9L2.9,1.9z"/>
				</g>
				<g id="Group_16" transform="translate(1.261 18.107)">
					<path id="Path_65" class="st3" d="M3.2,4.9L2.9,3l0.1,0l0.3,1.7l0.5-1.3c0.1-0.3,0.1-0.7,0-1C3.5,2,3.5,1.6,3.6,1.2l0.1,0
						C3.5,1.6,3.6,2,3.8,2.3C4,2.7,4,3,3.8,3.4L3.2,4.9z"/>
					<path id="Path_66" class="st3" d="M1.3,4.1L1.3,4.1l0.7-1.5C2.1,2.3,2.4,2,2.7,1.9l0,0c0,0,0.1,0,0.1,0
						c0.2-0.1,0.5-0.1,0.8-0.7l0.1,0L2.9,3l0,0L1.3,4.1z M3.5,1.5C3.3,1.7,3.1,1.9,2.8,1.9c0,0-0.1,0-0.1,0C2.4,2.1,2.1,2.3,2,2.7
						L1.4,4l1.5-1L3.5,1.5z"/>
				</g>
				<g id="Group_17" transform="translate(0.55 20.753)">
					<path id="Path_67" class="st3" d="M3.3,4.9L2.7,3.1l0.1,0l0.5,1.7l0.4-1.4c0.1-0.3,0.1-0.7-0.1-1C3.3,2,3.2,1.6,3.3,1.2l0.1,0
						C3.3,1.6,3.4,2,3.6,2.3C3.8,2.6,3.9,3,3.8,3.4L3.3,4.9z"/>
					<path id="Path_68" class="st3" d="M1.3,4.4l0-0.1c0,0,0.4-1.2,0.5-1.5C1.9,2.4,2.1,2.1,2.5,2l0,0l0.1,0C2.8,1.8,3,1.8,3.3,1.2
						l0.1,0L2.8,3.1l0,0L1.3,4.4z M2.5,2C2.2,2.2,1.9,2.5,1.8,2.8C1.8,3,1.5,3.9,1.4,4.2l1.4-1.1l0.5-1.6C3.1,1.7,2.9,1.9,2.6,2
						C2.6,2,2.5,2,2.5,2L2.5,2z"/>
				</g>
				<g id="Group_18" transform="translate(0.129 23.488)">
					<path id="Path_69" class="st3" d="M3.4,4.9L3.4,4.9L2.6,3.1l0.1,0l0.7,1.6l0.3-1.4c0.1-0.4,0-0.7-0.2-1C3,2,2.9,1.6,3,1.2
						l0.1,0C3,1.6,3.1,2,3.4,2.3c0.2,0.3,0.3,0.7,0.2,1L3.4,4.9z"/>
					<path id="Path_70" class="st3" d="M1.3,4.5l0-0.1c0,0,0.3-1.3,0.3-1.5c0.1-0.4,0.3-0.7,0.6-0.9l0,0c0,0,0.1,0,0.1-0.1
						C2.6,1.9,2.8,1.8,3,1.2l0.1,0l-0.4,2l0,0L1.3,4.5z M2.3,2.1C2,2.3,1.7,2.6,1.7,2.9c0,0.2-0.2,1.1-0.3,1.4l1.2-1.2l0.3-1.6
						C2.8,1.7,2.6,1.9,2.4,2C2.3,2.1,2.3,2.1,2.3,2.1L2.3,2.1z"/>
				</g>
				<g id="Group_19" transform="translate(0 26.283)">
					<path id="Path_71" class="st3" d="M3.4,4.9L2.5,3.2l0.1,0l0.8,1.5l0.1-1.4c0-0.4-0.1-0.7-0.3-1C2.8,2,2.6,1.6,2.6,1.2h0.1
						c0,0.4,0.1,0.8,0.5,1c0.3,0.3,0.4,0.6,0.3,1L3.4,4.9z"/>
					<path id="Path_72" class="st3" d="M1.3,4.7l0-0.1l0.2-1.5c0-0.4,0.2-0.7,0.5-0.9l0,0c0,0,0.1,0,0.1-0.1
						c0.2-0.1,0.4-0.2,0.5-0.9l0.1,0l-0.2,2l0,0L1.3,4.7z M2.6,1.5C2.5,1.8,2.4,2,2.1,2.1c0,0-0.1,0-0.1,0.1l0,0
						C1.7,2.4,1.5,2.7,1.5,3.1L1.3,4.5l1.1-1.4L2.6,1.5z"/>
				</g>
				<g id="Group_20" transform="translate(0.164 29.112)">
					<path id="Path_73" class="st3" d="M3.4,4.8L2.3,3.2l0,0l1,1.4l0-1.4c0-0.4-0.2-0.7-0.4-0.9C2.5,2,2.3,1.6,2.3,1.2l0.1,0
						c0,0.4,0.2,0.8,0.6,1c0.3,0.2,0.4,0.6,0.4,1L3.4,4.8z"/>
					<path id="Path_74" class="st3" d="M1.3,4.8V4.7c0,0,0-1.3,0-1.5c0-0.4,0.1-0.7,0.4-1l0,0c0,0,0.1-0.1,0.1-0.1
						C2,2,2.2,1.8,2.3,1.2h0.1l0,2l0,0L1.3,4.8z M2.3,1.5c0,0.3-0.2,0.5-0.4,0.6c0,0-0.1,0-0.1,0.1l0,0C1.5,2.5,1.3,2.8,1.3,3.2
						c0,0.2,0,1.1,0,1.4l1-1.5L2.3,1.5z"/>
				</g>
				<g id="Group_21" transform="translate(0.482 31.939)">
					<path id="Path_75" class="st3" d="M3.5,4.6L3.5,4.6L2.3,3.2l0,0l1.1,1.3L3.3,3c0-0.4-0.2-0.7-0.5-0.9C2.4,2,2.1,1.6,2.1,1.2
						l0.1,0c0,0.4,0.3,0.7,0.7,0.9C3.1,2.3,3.3,2.6,3.3,3L3.5,4.6z"/>
					<path id="Path_76" class="st3" d="M1.4,4.9L1.4,4.9c0-0.1-0.1-1.4-0.1-1.6c0-0.4,0.1-0.8,0.3-1l0,0c0,0,0.1-0.1,0.1-0.1
						C1.9,2,2,1.8,2.1,1.2h0.1l0.2,2l0,0L1.4,4.9z M2.1,1.5c0,0.3-0.1,0.5-0.4,0.7c0,0-0.1,0.1-0.1,0.1l0,0c-0.2,0.3-0.4,0.6-0.3,1
						c0,0.2,0.1,1.1,0.1,1.4l0.8-1.6L2.1,1.5z"/>
				</g>
				<g id="Group_22" transform="translate(1.042 34.744)">
					<path id="Path_77" class="st3" d="M3.7,4.5L3.7,4.5L2.3,3.1l0,0l1.2,1.2L3.2,2.9C3.2,2.5,3,2.2,2.6,2.1C2.2,1.9,2,1.6,1.9,1.2
						l0.1,0C2,1.6,2.3,1.9,2.7,2C3,2.2,3.2,2.5,3.3,2.9L3.7,4.5z"/>
					<path id="Path_78" class="st3" d="M1.6,5L1.6,5c0-0.1-0.3-1.4-0.3-1.6C1.2,3,1.3,2.6,1.5,2.3l0,0c0,0,0.1-0.1,0.1-0.1
						c0.2-0.2,0.3-0.4,0.3-1l0.1,0l0.4,2v0L1.6,5z M1.9,1.5c0,0.3-0.1,0.5-0.3,0.7c0,0-0.1,0.1-0.1,0.1l0,0C1.3,2.6,1.3,3,1.3,3.3
						c0,0.2,0.2,1.1,0.3,1.4l0.7-1.6L1.9,1.5z"/>
				</g>
				<g id="Group_23" transform="translate(1.873 37.498)">
					<path id="Path_79" class="st3" d="M3.8,4.3L2.3,3.1l0,0l1.4,1.1L3.2,2.8C3.1,2.4,2.9,2.1,2.5,2C2.1,1.9,1.8,1.6,1.7,1.2l0.1,0
						c0.1,0.4,0.4,0.7,0.8,0.8c0.3,0.1,0.6,0.4,0.7,0.8L3.8,4.3z"/>
					<path id="Path_80" class="st3" d="M1.8,5L1.8,5L1.3,3.4C1.2,3,1.2,2.6,1.5,2.3l0,0c0,0,0-0.1,0.1-0.1c0.1-0.2,0.3-0.4,0.2-1
						l0.1,0l0.6,1.9v0L1.8,5z M1.5,2.3C1.3,2.7,1.3,3,1.4,3.4l0.4,1.4l0.5-1.7L1.8,1.5C1.8,1.8,1.7,2,1.5,2.3
						C1.5,2.3,1.5,2.3,1.5,2.3L1.5,2.3z"/>
				</g>
				<g id="Group_24" transform="translate(2.964 40.175)">
					<path id="Path_81" class="st3" d="M3.9,4.1L2.3,3l0,0l1.5,0.9L3.2,2.6C3.1,2.3,2.8,2,2.4,1.9C2,1.8,1.7,1.6,1.5,1.2l0.1,0
						c0.2,0.4,0.5,0.6,0.9,0.7C2.8,2,3.1,2.2,3.2,2.6L3.9,4.1z"/>
					<path id="Path_82" class="st3" d="M2,4.9L2,4.9c0-0.1-0.5-1.3-0.6-1.5c-0.2-0.3-0.2-0.7,0-1.1c0,0,0-0.1,0.1-0.1
						c0.1-0.2,0.2-0.4,0.1-1l0.1,0L2.4,3v0L2,4.9z M1.4,2.3L1.4,2.3c-0.1,0.3-0.1,0.7,0,1L2,4.7L2.3,3L1.6,1.5
						C1.7,1.8,1.7,2,1.4,2.3C1.5,2.3,1.5,2.3,1.4,2.3L1.4,2.3z"/>
				</g>
				<g id="Group_25" transform="translate(4.31 42.746)">
					<path id="Path_83" class="st3" d="M4,3.8L4,3.8L2.3,2.9l0-0.1l1.5,0.8L3.2,2.4C3,2.1,2.7,1.9,2.4,1.8c-0.4,0-0.8-0.2-1-0.6l0,0
						c0.2,0.3,0.6,0.6,1,0.6C2.7,1.8,3,2.1,3.2,2.4L4,3.8z"/>
					<path id="Path_84" class="st3" d="M2.2,4.9L2.2,4.9L1.4,3.4C1.2,3.1,1.2,2.7,1.3,2.3l0,0c0,0,0-0.1,0-0.1c0.1-0.2,0.2-0.4,0-1
						l0.1,0l1,1.7v0L2.2,4.9z M1.4,2.4L1.4,2.4c-0.1,0.3-0.1,0.7,0.1,1l0.7,1.3l0.1-1.8L1.5,1.5C1.6,1.7,1.6,2,1.4,2.3
						C1.4,2.3,1.4,2.3,1.4,2.4L1.4,2.4z"/>
				</g>
				<g id="Group_26" transform="translate(5.826 45.186)">
					<path id="Path_85" class="st3" d="M4.2,3.6L2.4,2.8l0-0.1L4,3.4L3.2,2.3C3,2,2.7,1.8,2.3,1.7c-0.4,0-0.8-0.2-1.1-0.5l0,0
						c0.2,0.3,0.6,0.5,1,0.5c0.4,0,0.7,0.2,0.9,0.6L4.2,3.6z"/>
					<path id="Path_86" class="st3" d="M2.5,4.8L2.5,4.8L1.6,3.4C1.3,3.1,1.3,2.7,1.4,2.3l0,0c0,0,0-0.1,0-0.1
						c0.1-0.2,0.1-0.4-0.2-1l0.1,0l1.1,1.6v0L2.5,4.8z M1.5,1.5c0.1,0.2,0.1,0.5,0,0.8c0,0,0,0.1,0,0.1l0,0c-0.1,0.3,0,0.7,0.2,1
						l0.8,1.2l0-1.8L1.5,1.5z"/>
				</g>
				<g id="Group_27" transform="translate(7.496 47.473)">
					<path id="Path_87" class="st3" d="M4.4,3.3l-0.1,0L2.5,2.7l0-0.1l1.7,0.5l-1-1.1C3.1,1.8,2.8,1.6,2.4,1.6H2.4
						C2,1.7,1.5,1.5,1.3,1.2l0,0C1.6,1.5,2,1.6,2.4,1.6h0.1c0.4,0,0.7,0.2,0.9,0.5L4.4,3.3z"/>
					<path id="Path_88" class="st3" d="M2.8,4.7l-1-1.3c-0.3-0.3-0.4-0.7-0.3-1l0,0c0,0,0-0.1,0-0.1c0.1-0.2,0.1-0.5-0.3-1l0,0
						l1.3,1.5v0L2.8,4.7z M1.5,2.3c-0.1,0.4,0,0.7,0.3,1l0.9,1.1L2.5,2.7L1.5,1.5C1.6,1.7,1.6,2,1.6,2.2C1.6,2.3,1.6,2.3,1.5,2.3
						L1.5,2.3z"/>
				</g>
				<g id="Group_28" transform="translate(9.386 49.583)">
					<path id="Path_89" class="st3" d="M4.6,2.9L2.7,2.6l0-0.1l1.7,0.3l-1.1-1c-0.3-0.2-0.6-0.4-1-0.4C2,1.6,1.6,1.5,1.3,1.2l0,0
						C1.6,1.4,2,1.5,2.4,1.4c0.1,0,0.1,0,0.2,0c0.3,0,0.6,0.2,0.9,0.4L4.6,2.9z"/>
					<path id="Path_90" class="st3" d="M3.2,4.5L3.2,4.5c-0.1-0.1-1-1-1.2-1.2c-0.3-0.3-0.4-0.6-0.4-1l0,0c0,0,0-0.1,0-0.1
						c0-0.3,0.1-0.5-0.4-1l0,0l1.4,1.4v0L3.2,4.5z M1.5,1.4c0.2,0.2,0.2,0.5,0.2,0.8c0,0,0,0.1,0,0.1l0,0c0,0.4,0.1,0.7,0.4,1l1,1
						L2.7,2.6L1.5,1.4z"/>
				</g>
				<g id="Group_29" transform="translate(11.475 51.495)">
					<path id="Path_91" class="st3" d="M4.8,2.6l-0.1,0L2.8,2.4V2.4l1.7,0.1L3.4,1.6c-0.3-0.2-0.6-0.3-1-0.3C2,1.5,1.6,1.5,1.3,1.2
						l0,0C1.6,1.4,2,1.5,2.4,1.3c0.4-0.1,0.8,0,1,0.3L4.8,2.6z"/>
					<path id="Path_92" class="st3" d="M3.5,4.3L3.5,4.3L2.2,3.2C1.9,3,1.7,2.7,1.7,2.3l0,0c0,0,0-0.1,0-0.1c0-0.3,0-0.5-0.4-0.9
						l0,0l1.6,1.2v0L3.5,4.3z M1.5,1.4c0.2,0.2,0.3,0.5,0.2,0.7c0,0,0,0.1,0,0.1l0,0C1.8,2.6,2,3,2.2,3.2c0.2,0.1,0.9,0.7,1.1,0.9
						L2.8,2.4L1.5,1.4z"/>
				</g>
				<g id="Group_30" transform="translate(13.745 53.182)">
					<path id="Path_93" class="st3" d="M2.9,2.3L2.9,2.3l1.7-0.1L3.5,1.4c-0.3-0.2-0.7-0.3-1-0.2C2.1,1.5,1.6,1.4,1.3,1.2l0-0.1
						c0.3,0.2,0.8,0.2,1.1,0.1c0.4-0.1,0.8,0,1.1,0.2l1.4,0.9L2.9,2.3z"/>
					<path id="Path_94" class="st3" d="M3.8,4.1L3.8,4.1L2.4,3.1C2.1,2.9,1.9,2.6,1.8,2.2l0,0c0,0,0-0.1,0-0.1c0-0.3,0-0.5-0.5-0.9
						l0,0L3,2.3v0L3.8,4.1z M1.9,2.2c0,0.4,0.3,0.7,0.6,0.9l1.2,0.8L2.9,2.3L1.5,1.4c0.2,0.2,0.3,0.4,0.3,0.7
						C1.9,2.2,1.9,2.2,1.9,2.2L1.9,2.2z"/>
				</g>
				<g id="Group_31" transform="translate(16.173 54.492)">
					<path id="Path_95" class="st3" d="M3,2.3L3,2.3L4.8,2L3.5,1.4c-0.3-0.2-0.7-0.2-1-0.1C2.1,1.5,1.6,1.6,1.3,1.4l0-0.1
						c0.4,0.2,0.8,0.2,1.1-0.1c0.3-0.1,0.7-0.1,1.1,0.1L5,2l-0.1,0L3,2.3z"/>
					<path id="Path_96" class="st3" d="M4,4L4,4L2.6,3.2C2.2,3,2,2.7,1.9,2.3l0,0c0,0,0-0.1,0-0.1c0-0.2-0.1-0.5-0.6-0.8l0-0.1
						l1.8,0.9v0L4,4z M2,2.3C2.1,2.7,2.3,3,2.6,3.1l1.3,0.7L3,2.3L1.6,1.5c0.2,0.2,0.4,0.4,0.4,0.7C1.9,2.2,2,2.3,2,2.3L2,2.3z"/>
				</g>
				<g id="Group_32" transform="translate(18.734 55.54)">
					<path id="Path_97" class="st3" d="M3.1,2.3L3.1,2.3l1.7-0.4L3.5,1.3c-0.3-0.1-0.7-0.1-1,0C2.1,1.6,1.7,1.7,1.3,1.5l0-0.1
						c0.4,0.1,0.8,0.1,1.1-0.2c0.3-0.2,0.7-0.2,1.1-0.1L5,1.8l-0.1,0L3.1,2.3z"/>
					<path id="Path_98" class="st3" d="M4.3,3.8L4.3,3.8L2.8,3.2C2.4,3.1,2.1,2.8,2,2.4l0,0c0,0,0-0.1,0-0.1
						C1.9,2.1,1.8,1.9,1.3,1.5l0-0.1l1.9,0.7l0,0L4.3,3.8z M1.6,1.7C1.8,1.8,2,2,2,2.3c0,0,0,0.1,0,0.1l0,0C2.2,2.8,2.4,3,2.8,3.1
						l1.3,0.6l-1-1.4L1.6,1.7z"/>
				</g>
				<g id="Group_33" transform="translate(21.404 56.321)">
					<path id="Path_99" class="st3" d="M3.2,2.2L3.2,2.2l1.6-0.6L3.4,1.3c-0.3-0.1-0.7,0-1,0.2C2.1,1.7,1.7,1.8,1.3,1.7l0-0.1
						c0.4,0.1,0.8,0,1.1-0.3c0.3-0.2,0.7-0.3,1.1-0.2L5,1.6l-0.1,0L3.2,2.2z"/>
					<path id="Path_100" class="st3" d="M4.5,3.7l-0.1,0L2.9,3.2C2.5,3.1,2.2,2.9,2.1,2.5l0,0c0,0,0-0.1,0-0.1
						C1.9,2.2,1.9,2,1.3,1.7l0-0.1l1.9,0.5l0,0L4.5,3.7z M2.1,2.5c0.2,0.3,0.4,0.6,0.8,0.7l1.4,0.4L3.2,2.2L1.6,1.8
						C1.8,1.9,2,2.1,2.1,2.4C2.1,2.4,2.1,2.5,2.1,2.5L2.1,2.5z"/>
				</g>
				<g id="Group_34" transform="translate(24.156 56.822)">
					<path id="Path_101" class="st3" d="M3.2,2.2L3.2,2.2l1.6-0.8L3.4,1.2c-0.4-0.1-0.7,0-1,0.3C2.1,1.8,1.7,2,1.3,1.9V1.8
						c0.1,0,0.1,0,0.2,0c0.3,0,0.7-0.1,0.9-0.4c0.3-0.2,0.7-0.3,1-0.3L5,1.4L3.2,2.2z"/>
					<path id="Path_102" class="st3" d="M4.7,3.5l-0.1,0L3.1,3.2C2.7,3.2,2.3,2.9,2.2,2.6l0,0c0,0,0-0.1-0.1-0.1
						C2,2.3,1.9,2.1,1.3,1.9l0-0.1l2,0.3l0,0L4.7,3.5z M2.2,2.6c0.2,0.3,0.5,0.5,0.9,0.6l1.4,0.3L3.2,2.2L1.6,2C1.8,2,2,2.2,2.1,2.5
						C2.2,2.5,2.2,2.6,2.2,2.6L2.2,2.6z"/>
				</g>
				<g id="Group_35" transform="translate(26.961 57.039)">
					<path id="Path_103" class="st3" d="M3.2,2.2L3.2,2.2l1.5-0.9L3.3,1.2c-0.4,0-0.7,0.1-1,0.3C2.1,1.9,1.7,2.1,1.3,2.1V2
						c0.4,0,0.8-0.2,1-0.5c0.2-0.2,0.6-0.4,0.9-0.4c0.1,0,0.1,0,0.1,0l1.6,0.1L3.2,2.2z"/>
					<path id="Path_104" class="st3" d="M4.8,3.4l-0.1,0L3.2,3.2c-0.4,0-0.7-0.2-1-0.5l0,0c0,0,0-0.1-0.1-0.1C2,2.4,1.9,2.2,1.3,2.1
						l0-0.1l2,0.1l0,0L4.8,3.4z M1.6,2.1c0.3,0.1,0.5,0.2,0.6,0.5c0,0,0,0.1,0.1,0.1l0,0C2.5,3,2.8,3.2,3.2,3.2
						c0.2,0,1.1,0.1,1.4,0.1L3.2,2.2L1.6,2.1z"/>
				</g>
				<g id="Group_36" transform="translate(29.793 56.895)">
					<path id="Path_105" class="st3" d="M1.3,2.4L1.3,2.4c0.4-0.1,0.8-0.3,1-0.6c0.2-0.3,0.6-0.5,1-0.5l1.6-0.1L4.8,1.2L3.3,2.3l0,0
						l1.4-1L3.2,1.3c-0.4,0-0.7,0.2-0.9,0.4C2.1,2.1,1.7,2.3,1.3,2.4z"/>
					<path id="Path_106" class="st3" d="M3.3,3.3c-0.4,0-0.7-0.1-1-0.4l0,0c0,0-0.1-0.1-0.1-0.1C2,2.6,1.9,2.4,1.3,2.4V2.3l2-0.1
						l0,0l1.7,1H4.8L3.3,3.3L3.3,3.3z M1.6,2.4c0.3,0,0.5,0.2,0.7,0.4c0,0,0.1,0.1,0.1,0.1l0,0c0.2,0.3,0.6,0.4,0.9,0.4h0l1.4,0
						L3.2,2.3L1.6,2.4z"/>
				</g>
				<g id="Group_37" transform="translate(32.618 56.389)">
					<path id="Path_107" class="st3" d="M1.3,2.7L1.3,2.7C1.7,2.6,2,2.3,2.2,2c0.2-0.3,0.5-0.5,0.9-0.6l1.6-0.2L4.6,1.2L3.2,2.5l0,0
						l1.3-1.1L3.1,1.5C2.7,1.5,2.4,1.7,2.2,2C2,2.4,1.7,2.6,1.3,2.7z"/>
					<path id="Path_108" class="st3" d="M3.2,3.5c-0.3,0-0.6-0.1-0.9-0.3c0,0-0.1-0.1-0.1-0.1c-0.2-0.2-0.3-0.3-1-0.3h0V2.7l2-0.3h0
						L5,3.3l-0.1,0L3.4,3.4C3.3,3.4,3.3,3.5,3.2,3.5z M2.4,3.1c0.2,0.2,0.5,0.3,0.8,0.3c0.1,0,0.1,0,0.2,0l1.4-0.2L3.2,2.4L1.6,2.7
						C1.9,2.7,2.1,2.8,2.4,3.1C2.3,3,2.3,3.1,2.4,3.1L2.4,3.1z"/>
				</g>
				<g id="Group_38" transform="translate(35.412 55.617)">
					<path id="Path_109" class="st3" d="M1.3,3L1.3,3C1.7,2.9,2,2.6,2.1,2.2c0.2-0.3,0.5-0.6,0.9-0.6l1.6-0.4L4.5,1.2L3.2,2.6l0,0
						l1.2-1.3L3,1.6C2.6,1.7,2.3,1.9,2.1,2.2C2,2.6,1.7,2.9,1.3,3z"/>
					<path id="Path_110" class="st3" d="M3.1,3.6c-0.3,0-0.5-0.1-0.7-0.2l0,0c0,0-0.1-0.1-0.1-0.1C2.1,3.1,1.9,3,1.3,3.1l0-0.1
						l1.9-0.5l1.9,0.7L5,3.3L3.4,3.6C3.3,3.6,3.2,3.6,3.1,3.6z M2.4,3.3c0.3,0.2,0.7,0.3,1,0.2l1.4-0.3L3.2,2.6L1.6,3
						C1.9,3,2.1,3.1,2.4,3.3C2.4,3.3,2.4,3.3,2.4,3.3L2.4,3.3z"/>
				</g>
				<g id="Group_39" transform="translate(38.15 54.588)">
					<path id="Path_111" class="st3" d="M1.3,3.4L1.3,3.4C1.6,3.2,1.9,2.8,2,2.5c0.1-0.3,0.4-0.6,0.8-0.7l1.5-0.6L4.3,1.3L3.2,2.7
						l0,0l1.1-1.4L2.8,1.8C2.5,1.9,2.2,2.1,2.1,2.5C2,2.9,1.7,3.2,1.3,3.4z"/>
					<path id="Path_112" class="st3" d="M3,3.7c-0.2,0-0.4-0.1-0.6-0.2c0,0-0.1,0-0.1-0.1c-0.2-0.1-0.4-0.3-1-0.1l0-0.1l1.9-0.6h0
						l1.9,0.5L5,3.2L3.5,3.7C3.3,3.7,3.2,3.7,3,3.7z M2.4,3.5c0.3,0.2,0.7,0.2,1,0.1l1.4-0.4L3.2,2.7L1.6,3.3c0.3,0,0.5,0,0.7,0.2
						C2.4,3.5,2.4,3.5,2.4,3.5L2.4,3.5z"/>
				</g>
				<g id="Group_40" transform="translate(40.804 53.31)">
					<path id="Path_113" class="st3" d="M1.3,3.7L1.3,3.7c0.3-0.2,0.6-0.6,0.6-1C2,2.3,2.3,2,2.6,1.9l1.5-0.7l-1,1.7L3,2.8L4,1.3
						L2.7,1.9C2.3,2.1,2.1,2.4,2,2.7C1.9,3.1,1.7,3.5,1.3,3.7z"/>
					<path id="Path_114" class="st3" d="M2.9,3.9c-0.2,0-0.4,0-0.5-0.1l0,0c0,0-0.1,0-0.1-0.1c-0.2-0.1-0.4-0.2-1,0l0-0.1l1.8-0.8h0
						L5,3.1l-0.1,0L3.5,3.7C3.3,3.8,3.1,3.9,2.9,3.9z M1.9,3.5c0.2,0,0.3,0.1,0.5,0.1c0,0,0.1,0,0.1,0.1l0,0c0.3,0.2,0.7,0.2,1,0
						c0.2-0.1,1-0.4,1.3-0.6L3.1,2.8L1.6,3.5C1.7,3.5,1.8,3.5,1.9,3.5L1.9,3.5z"/>
				</g>
				<g id="Group_41" transform="translate(43.346 51.797)">
					<path id="Path_115" class="st3" d="M1.3,3.9L1.3,3.9c0.3-0.3,0.5-0.6,0.5-1C1.9,2.5,2.1,2.2,2.5,2l1.4-0.8l0,0.1L3,2.9L3,2.9
						l0.8-1.6L2.5,2.1C2.2,2.2,2,2.6,1.9,2.9C1.9,3.3,1.7,3.7,1.3,3.9z"/>
					<path id="Path_116" class="st3" d="M2.8,4c-0.1,0-0.3,0-0.4-0.1l0,0c0,0-0.1,0-0.1,0c-0.2-0.1-0.4-0.2-1,0.1l0-0.1l1.7-1h0L5,3
						L3.5,3.8C3.3,3.9,3.1,4,2.8,4z M1.9,3.7c0.1,0,0.3,0,0.4,0.1c0,0,0.1,0,0.1,0l0,0c0.3,0.1,0.7,0.1,1-0.1L4.8,3L3,2.9L1.6,3.8
						C1.7,3.7,1.8,3.7,1.9,3.7L1.9,3.7z"/>
				</g>
				<g id="Group_42" transform="translate(45.753 50.065)">
					<path id="Path_117" class="st3" d="M1.3,4.2L1.3,4.2c0.3-0.3,0.5-0.7,0.4-1.1c0-0.4,0.2-0.7,0.5-0.9l1.3-1L2.9,3L2.9,3l0.6-1.6
						L2.3,2.2C2,2.4,1.8,2.7,1.8,3.1C1.8,3.5,1.6,3.9,1.3,4.2z"/>
					<path id="Path_118" class="st3" d="M1.3,4.2L1.3,4.2l1.6-1.2h0l2-0.1L4.8,2.9L3.5,3.8C3.2,4,2.8,4.1,2.4,4l0,0L2.3,4
						C2.1,3.9,1.9,3.9,1.3,4.2z M2.5,4c0.4,0.1,0.7,0,1-0.2l1.2-0.8L2.9,3L1.6,4c0.2-0.1,0.5-0.1,0.8,0C2.4,3.9,2.4,4,2.5,4L2.5,4z"
						/>
				</g>
				<g id="Group_43" transform="translate(47.999 48.13)">
					<path id="Path_119" class="st3" d="M1.3,4.4L1.3,4.4c0.3-0.3,0.4-0.7,0.3-1.1c0-0.4,0.2-0.7,0.4-1l1.2-1.1l0,0.1L2.8,3.1L2.7,3
						l0.4-1.7l-1.1,1C1.8,2.6,1.7,2.9,1.7,3.3C1.8,3.7,1.6,4.1,1.3,4.4z"/>
					<path id="Path_120" class="st3" d="M1.3,4.4L1.3,4.4L2.7,3h0l2-0.3L4.6,2.8l-1.2,1C3.2,4,2.9,4.1,2.6,4.1c-0.1,0-0.1,0-0.2,0
						l0,0c0,0-0.1,0-0.1,0C2.1,4.1,1.8,4,1.3,4.4z M2.8,3.1L1.5,4.2C1.8,4,2.1,4,2.3,4l0.1,0l0,0c0.4,0.1,0.7-0.1,1-0.3l1.1-0.9
						L2.8,3.1z"/>
				</g>
				<g id="Group_44" transform="translate(50.064 46.011)">
					<path id="Path_121" class="st3" d="M1.3,4.6L1.3,4.6c0.2-0.3,0.3-0.7,0.2-1.1c0-0.4,0.1-0.7,0.3-1l1.1-1.2L2.6,3.1l-0.1,0
						l0.3-1.7l-1,1.1c-0.2,0.3-0.4,0.6-0.3,1C1.7,3.8,1.6,4.2,1.3,4.6z"/>
					<path id="Path_122" class="st3" d="M1.3,4.6L1.3,4.6L2.6,3h0l1.9-0.5L4.5,2.7L3.4,3.8C3.2,4,2.8,4.2,2.5,4.2H2.4
						c0,0-0.1,0-0.1,0C2,4.2,1.8,4.1,1.3,4.6z M2.6,3.1L1.5,4.3C1.7,4.2,2,4.1,2.3,4.1c0,0,0.1,0,0.1,0h0.1c0.3,0,0.7-0.2,0.9-0.4
						l1-1L2.6,3.1z"/>
				</g>
				<g id="Group_45" transform="translate(51.926 43.729)">
					<path id="Path_123" class="st3" d="M1.3,4.7L1.3,4.7c0.2-0.4,0.2-0.8,0.1-1.2c-0.1-0.4,0-0.8,0.2-1l1-1.3l0,0.1L2.5,3.1H2.4
						l0.1-1.7L1.7,2.5c-0.2,0.3-0.3,0.6-0.2,1C1.6,3.9,1.6,4.4,1.3,4.7z"/>
					<path id="Path_124" class="st3" d="M1.3,4.7L1.3,4.7l1.1-1.6h0l1.9-0.7L4.3,2.5l-1,1.2C3.1,4,2.7,4.2,2.4,4.2l0,0
						C1.9,4.2,1.5,4.4,1.3,4.7z M2.5,3.1l-1,1.3C1.7,4.3,2,4.2,2.2,4.2c0,0,0.1,0,0.1,0l0,0C2.7,4.2,3,4,3.3,3.7l0.9-1.1L2.5,3.1z"
						/>
				</g>
				<g id="Group_46" transform="translate(53.523 41.307)">
					<path id="Path_125" class="st3" d="M1.4,4.8L1.4,4.8c0.2-0.4,0.2-0.8,0-1.2C1.2,3.3,1.3,2.9,1.5,2.6l0.8-1.4l0,0.1l0.1,1.8H2.3
						L2.2,1.4L1.5,2.6c-0.2,0.3-0.2,0.7-0.1,1C1.6,4,1.6,4.4,1.4,4.8z"/>
					<path id="Path_126" class="st3" d="M1.4,4.8L1.4,4.8l1-1.7h0l1.8-0.8L4.1,2.3L3.2,3.6C3.1,4,2.7,4.2,2.4,4.2l0,0
						c0,0-0.1,0-0.1,0C2,4.3,1.8,4.3,1.4,4.8z M2.4,3.1L1.5,4.5C1.7,4.3,2,4.2,2.2,4.2l0.1,0l0,0C2.7,4.1,3,3.9,3.2,3.6L4,2.4
						L2.4,3.1z"/>
				</g>
				<g id="Group_47" transform="translate(54.772 38.771)">
					<path id="Path_127" class="st3" d="M1.5,4.9L1.5,4.9c0.1-0.4,0.1-0.8-0.1-1.1C1.2,3.4,1.2,3,1.4,2.7l0.7-1.5l0,0.1l0.3,1.8
						l-0.1,0L2.1,1.4L1.5,2.7c-0.2,0.3-0.2,0.7,0,1C1.7,4.1,1.7,4.5,1.5,4.9z"/>
					<path id="Path_128" class="st3" d="M1.5,4.9L1.5,4.9l0.8-1.8l0,0l1.7-1l0,0.1L3.3,3.5C3.1,3.9,2.8,4.1,2.4,4.2l0,0
						c0,0-0.1,0-0.1,0C2.1,4.3,1.9,4.3,1.5,4.9z M2.4,3.1L1.7,4.6C1.8,4.4,2,4.2,2.3,4.2c0,0,0.1,0,0.1,0l0,0
						c0.3-0.1,0.6-0.3,0.8-0.7c0.1-0.2,0.5-1,0.7-1.3L2.4,3.1z"/>
				</g>
				<g id="Group_48" transform="translate(55.758 36.144)">
					<path id="Path_129" class="st3" d="M1.7,4.9L1.7,4.9c0.1-0.4,0-0.8-0.3-1.1C1.2,3.5,1.2,3.1,1.3,2.7l0.5-1.6l0,0.1l0.4,1.8
						l-0.1,0L1.9,1.4L1.4,2.7c-0.1,0.3-0.1,0.7,0.1,1C1.7,4.1,1.8,4.5,1.7,4.9z"/>
					<path id="Path_130" class="st3" d="M1.7,4.9L1.7,4.9L2.3,3l0,0l1.6-1.2l0,0.1c0,0-0.5,1.2-0.6,1.4C3.2,3.8,2.9,4,2.5,4.2l0,0
						c0,0-0.1,0-0.1,0C2.2,4.3,2,4.3,1.7,4.9z M2.3,3.1L1.8,4.6c0.1-0.2,0.4-0.4,0.6-0.5c0,0,0.1,0,0.1,0C2.9,4,3.1,3.7,3.2,3.4
						C3.3,3.2,3.6,2.3,3.8,2L2.3,3.1z"/>
				</g>
				<g id="Group_49" transform="translate(56.473 33.451)">
					<path id="Path_131" class="st3" d="M1.9,4.9L1.9,4.9c0-0.4-0.1-0.8-0.4-1.1C1.3,3.5,1.2,3.1,1.3,2.8l0.4-1.6l0,0.1L2.3,3L2.3,3
						L1.7,1.4L1.4,2.8c-0.1,0.3,0,0.7,0.2,1C1.8,4.1,2,4.5,1.9,4.9z"/>
					<path id="Path_132" class="st3" d="M1.9,4.9L1.9,4.9l0.4-2l0,0l1.5-1.3l0,0.1L3.3,3.2C3.2,3.6,3,3.9,2.6,4.1l0,0
						c0,0-0.1,0-0.1,0C2.3,4.2,2.1,4.3,1.9,4.9z M2.3,3L1.9,4.6C2,4.4,2.2,4.2,2.5,4.1c0,0,0.1,0,0.1,0l0,0c0.3-0.2,0.6-0.5,0.6-0.8
						l0.4-1.4L2.3,3z"/>
				</g>
				<g id="Group_50" transform="translate(56.907 30.72)">
					<path id="Path_133" class="st3" d="M2,4.9L2,4.9c0-0.4-0.2-0.8-0.5-1.1c-0.2-0.3-0.4-0.7-0.3-1l0.2-1.6l0.8,1.8L2.3,3L1.5,1.4
						L1.3,2.8c-0.1,0.4,0,0.7,0.3,1C1.9,4.1,2.1,4.5,2,4.9z"/>
					<path id="Path_134" class="st3" d="M2,4.9L2,4.9l0.2-2l0,0l1.3-1.5l0,0.1L3.3,3.1c0,0.4-0.3,0.7-0.6,0.9l0,0c0,0-0.1,0-0.1,0.1
						C2.4,4.2,2.2,4.3,2,4.9z M2.3,2.9L2.1,4.6C2.2,4.3,2.4,4.1,2.6,4c0,0,0.1,0,0.1-0.1l0,0C3,3.7,3.2,3.4,3.3,3.1
						c0-0.2,0.2-1.1,0.2-1.4L2.3,2.9z"/>
				</g>
				<g id="Group_51" transform="translate(57.055 27.979)">
					<path id="Path_135" class="st3" d="M2.2,4.8c0-0.4-0.2-0.8-0.5-1c-0.3-0.3-0.4-0.6-0.4-1l0-1.6l0.1,0.1l1,1.6l-0.1,0L1.4,1.4
						l0,1.4c0,0.4,0.1,0.7,0.4,1C2,4,2.2,4.4,2.2,4.8L2.2,4.8z"/>
					<path id="Path_136" class="st3" d="M2.2,4.8L2.2,4.8l0-2l0,0l1.2-1.6l0,0.1c0,0-0.1,1.3-0.1,1.5c0,0.4-0.2,0.7-0.5,1l0,0
						c0,0-0.1,0-0.1,0.1C2.5,4.1,2.3,4.2,2.2,4.8z M2.3,2.8L2.2,4.5C2.3,4.2,2.5,4,2.7,3.9l0.1-0.1l0,0c0.3-0.2,0.5-0.6,0.5-0.9
						c0-0.2,0.1-1.1,0.1-1.4L2.3,2.8z"/>
				</g>
				<g id="Group_52" transform="translate(56.807 25.104)">
					<path id="Path_137" class="st3" d="M2.5,4.9c0-0.4-0.3-0.8-0.6-0.9C1.6,3.7,1.4,3.3,1.4,3L1.3,1.3l0.1,0.1l1.1,1.5l0,0l-1-1.4
						L1.4,3c0,0.4,0.2,0.7,0.5,0.9C2.3,4.1,2.5,4.4,2.5,4.9L2.5,4.9z"/>
					<path id="Path_138" class="st3" d="M2.5,4.9L2.5,4.9l-0.2-2v0l1-1.7v0.1c0,0,0,1.3,0,1.5c0,0.4-0.1,0.7-0.4,1
						c0,0-0.1,0.1-0.1,0.1C2.8,4.1,2.6,4.2,2.5,4.9z M2.4,2.9l0.1,1.6c0-0.3,0.2-0.5,0.4-0.7c0,0,0.1-0.1,0.1-0.1l0,0
						c0.3-0.2,0.4-0.6,0.4-1c0-0.2,0-1.1,0-1.4L2.4,2.9z"/>
				</g>
				<g id="Group_53" transform="translate(56.236 22.213)">
					<path id="Path_139" class="st3" d="M2.8,4.9C2.8,4.5,2.5,4.2,2.1,4.1C1.8,3.9,1.6,3.5,1.5,3.2L1.3,1.5L2.6,3l0,0L1.4,1.7
						l0.2,1.4C1.7,3.5,1.9,3.8,2.2,4C2.5,4.2,2.8,4.5,2.8,4.9L2.8,4.9z"/>
					<path id="Path_140" class="st3" d="M2.8,4.9L2.5,3v0l0.8-1.8l0,0.1c0,0,0.2,1.3,0.2,1.5c0.1,0.4,0,0.8-0.3,1l0,0
						c0,0-0.1,0.1-0.1,0.1C3,4.1,2.9,4.3,2.8,4.9L2.8,4.9z M2.6,3l0.3,1.6c0-0.3,0.1-0.5,0.3-0.7c0,0,0.1-0.1,0.1-0.1l0,0
						c0.2-0.3,0.3-0.6,0.3-1c0-0.2-0.1-1.1-0.2-1.4L2.6,3z"/>
				</g>
				<g id="Group_54" transform="translate(55.401 19.395)">
					<path id="Path_141" class="st3" d="M3.2,5C3.1,4.6,2.8,4.3,2.4,4.2C2,4,1.8,3.7,1.7,3.3L1.3,1.7l0.1,0.1L2.7,3l0,0L1.4,1.9
						l0.4,1.4c0.1,0.3,0.3,0.6,0.6,0.8C2.8,4.2,3.1,4.5,3.2,5L3.2,5z"/>
					<path id="Path_142" class="st3" d="M3.2,5L2.7,3v0l0.7-1.9l0,0.1l0.4,1.5c0.1,0.4,0,0.8-0.2,1.1l0,0c0,0,0,0.1-0.1,0.1
						C3.3,4.1,3.1,4.3,3.2,5L3.2,5z M2.7,3l0.4,1.6c0-0.3,0.1-0.5,0.2-0.7c0,0,0-0.1,0.1-0.1l0,0c0.2-0.3,0.3-0.7,0.2-1
						c0-0.2-0.3-1.1-0.3-1.4L2.7,3z"/>
				</g>
				<g id="Group_55" transform="translate(54.312 16.679)">
					<path id="Path_143" class="st3" d="M3.5,5C3.3,4.6,3,4.3,2.6,4.2C2.2,4.1,2,3.8,1.8,3.5L1.3,1.9L1.3,2l1.5,1.1l0,0l-1.4-1
						l0.5,1.3C2,3.8,2.3,4,2.6,4.2C3,4.3,3.4,4.5,3.5,5L3.5,5z"/>
					<path id="Path_144" class="st3" d="M3.5,5L2.8,3.1v0l0.5-1.9l0,0.1c0,0,0.4,1.2,0.5,1.5c0.1,0.4,0.1,0.7-0.1,1.1l0,0
						c0,0,0,0.1-0.1,0.1C3.5,4.1,3.4,4.3,3.5,5L3.5,5z M2.8,3.1l0.6,1.5c0-0.3,0-0.5,0.2-0.7c0,0,0-0.1,0.1-0.1l0,0
						c0.2-0.3,0.2-0.7,0.1-1C3.7,2.6,3.4,1.7,3.3,1.4L2.8,3.1z"/>
				</g>
				<g id="Group_56" transform="translate(52.977 14.091)">
					<path id="Path_145" class="st3" d="M3.8,4.9C3.6,4.6,3.2,4.3,2.8,4.3C2.5,4.2,2.2,3.9,2,3.6L1.3,2.1l0.1,0l1.6,0.9l0,0.1
						L1.4,2.3l0.7,1.3c0.2,0.3,0.4,0.6,0.8,0.7C3.3,4.3,3.6,4.5,3.8,4.9L3.8,4.9z"/>
					<path id="Path_146" class="st3" d="M3.8,4.9L2.9,3.1v0l0.3-2l0,0.1l0.6,1.4C4,3,4,3.4,3.9,3.8l0,0c0,0,0,0.1-0.1,0.1
						C3.7,4.1,3.6,4.3,3.8,4.9L3.8,4.9z M2.9,3.1l0.7,1.5c-0.1-0.3,0-0.5,0.1-0.8c0,0,0-0.1,0.1-0.1l0,0C4,3.4,4,3,3.8,2.7L3.2,1.4
						L2.9,3.1z"/>
				</g>
				<g id="Group_57" transform="translate(51.411 11.656)">
					<path id="Path_147" class="st3" d="M4,4.8C3.8,4.5,3.4,4.3,3,4.3C2.7,4.2,2.3,4,2.1,3.7L1.3,2.3l0.1,0L3,3.1l0,0.1L1.4,2.5
						l0.8,1.2C2.4,4,2.7,4.2,3,4.2C3.5,4.2,3.8,4.5,4,4.8L4,4.8z"/>
					<path id="Path_148" class="st3" d="M4,4.8L3,3.1v0l0.1-2l0.1,0.1c0,0,0.7,1.1,0.8,1.3C4.1,2.9,4.1,3.3,4,3.7l0,0
						c0,0,0,0.1,0,0.1C3.9,4,3.8,4.2,4,4.8L4,4.8z M3,3.1l0.9,1.4C3.8,4.3,3.8,4,3.9,3.8c0,0,0-0.1,0-0.1c0.1-0.3,0.1-0.7-0.1-1
						c-0.1-0.2-0.6-1-0.7-1.3L3,3.1z"/>
				</g>
				<g id="Group_58" transform="translate(49.628 9.401)">
					<path id="Path_149" class="st3" d="M4.3,4.7C4,4.4,3.7,4.3,3.3,4.3c0,0,0,0-0.1,0c-0.4,0-0.7-0.2-0.9-0.5l-1-1.3l0.1,0l1.7,0.6
						l0,0.1L1.4,2.6l0.9,1.1C2.5,4,2.9,4.2,3.2,4.2h0.1C3.7,4.2,4.1,4.4,4.3,4.7L4.3,4.7z"/>
					<path id="Path_150" class="st3" d="M4.3,4.7L3.1,3.1v0l-0.1-2l1,1.3c0.2,0.3,0.3,0.7,0.2,1.1l0,0c0,0,0,0.1,0,0.1
						C4,3.9,4,4.1,4.3,4.7L4.3,4.7z M3.1,3.1l1,1.3C4,4.2,4,3.9,4.1,3.7c0,0,0-0.1,0-0.1l0,0c0.1-0.4,0-0.7-0.2-1L3,1.4L3.1,3.1z"/>
				</g>
				<g id="Group_59" transform="translate(47.648 7.347)">
					<path id="Path_151" class="st3" d="M4.5,4.6C4.2,4.3,3.8,4.2,3.4,4.2c0,0-0.1,0-0.1,0C3,4.2,2.6,4.1,2.4,3.8L1.3,2.6l1.9,0.4
						l0,0.1L1.4,2.7l1,1C2.7,4,3,4.2,3.3,4.2c0,0,0.1,0,0.1,0C3.8,4.1,4.2,4.2,4.5,4.6L4.5,4.6z"/>
					<path id="Path_152" class="st3" d="M4.5,4.6L3.1,3.1v0L2.8,1.2l1.1,1.2c0.3,0.3,0.4,0.6,0.3,1l0,0c0,0,0,0.1,0,0.1
						C4.2,3.8,4.1,4,4.5,4.6L4.5,4.6z M3.2,3.1l1.1,1.2C4.1,4.1,4.1,3.8,4.2,3.5c0,0,0-0.1,0-0.1l0,0c0-0.4-0.1-0.7-0.3-1l-1-1.1
						L3.2,3.1z"/>
				</g>
				<g id="Group_60" transform="translate(45.488 5.514)">
					<path id="Path_153" class="st3" d="M4.6,4.4C4.3,4.1,3.9,4,3.5,4.2c-0.4,0.1-0.7-0.1-1-0.3L1.3,2.8l0.1,0L3.2,3l0,0.1L1.5,2.9
						l1.1,0.9c0.3,0.2,0.6,0.3,1,0.3C3.9,4,4.4,4.1,4.6,4.4L4.6,4.4z"/>
					<path id="Path_154" class="st3" d="M4.6,4.4L3.1,3.1v0L2.6,1.2l0.1,0.1l1.1,1c0.3,0.2,0.5,0.6,0.5,1l0,0c0,0,0,0.1,0,0.1
						C4.3,3.6,4.3,3.9,4.6,4.4L4.6,4.4z M3.2,3l1.2,1.1C4.3,3.9,4.2,3.7,4.2,3.4c0,0,0-0.1,0-0.1l0,0c0-0.4-0.2-0.7-0.4-0.9l-1.1-1
						L3.2,3z"/>
				</g>
				<g id="Group_61" transform="translate(43.171 3.918)">
					<path id="Path_155" class="st3" d="M4.8,4.2C4.5,4,4,3.9,3.7,4.1c-0.1,0-0.2,0-0.3,0C3.1,4.1,2.8,4,2.6,3.9L1.3,2.9L3.2,3V3
						L1.5,3l1.2,0.8C2.9,4,3.3,4.1,3.7,4C4,3.8,4.5,3.9,4.8,4.2L4.8,4.2z"/>
					<path id="Path_156" class="st3" d="M4.8,4.2L3.2,3L2.5,1.2l0.1,0.1l1.2,0.9c0.3,0.2,0.5,0.6,0.5,0.9l0,0c0,0,0,0.1,0,0.1
						C4.3,3.5,4.3,3.7,4.8,4.2L4.8,4.2z M3.2,3l1.3,1C4.4,3.7,4.3,3.5,4.3,3.2c0,0,0-0.1,0-0.1c0-0.4-0.2-0.7-0.5-0.9L2.6,1.3L3.2,3
						z"/>
				</g>
				<g id="Group_62" transform="translate(40.72 2.58)">
					<path id="Path_157" class="st3" d="M3.4,4C3.1,4,2.9,3.9,2.7,3.8L1.3,3l0.1,0l1.8-0.1V3L1.5,3.1l1.3,0.7C3,4,3.4,4,3.7,3.9
						c0.4-0.2,0.8-0.2,1.2,0l0,0.1c-0.4-0.2-0.8-0.2-1.1,0C3.6,4,3.5,4,3.4,4z"/>
					<path id="Path_158" class="st3" d="M4.9,3.9l-1.7-1v0L2.3,1.2l0.1,0.1L3.7,2C4,2.2,4.3,2.5,4.3,2.9l0,0c0,0,0,0.1,0,0.1
						C4.4,3.3,4.4,3.5,4.9,3.9L4.9,3.9z M3.2,2.9l1.4,0.8C4.4,3.5,4.3,3.3,4.3,3c0,0,0-0.1,0-0.1l0,0C4.2,2.6,4,2.2,3.7,2.1L2.4,1.3
						L3.2,2.9z"/>
				</g>
				<g id="Group_63" transform="translate(38.159 1.509)">
					<path id="Path_159" class="st3" d="M3.3,3.9c-0.2,0-0.4,0-0.6-0.1L1.3,3.1l0.1,0l1.8-0.3l0,0.1L1.5,3.1l1.3,0.6
						c0.3,0.1,0.7,0.1,1,0C4.2,3.5,4.6,3.4,5,3.6l0,0.1C4.6,3.5,4.2,3.5,3.8,3.8C3.7,3.9,3.5,3.9,3.3,3.9z"/>
					<path id="Path_160" class="st3" d="M5,3.7L3.1,2.8v0l-1-1.7l0.1,0c0,0,1.2,0.6,1.4,0.7C3.9,2,4.2,2.3,4.3,2.7l0,0
						c0,0,0,0.1,0,0.1C4.4,3.1,4.4,3.3,5,3.7L5,3.7z M3.2,2.8l1.5,0.7C4.5,3.3,4.3,3.1,4.3,2.8c0,0,0-0.1,0-0.1l0,0
						C4.1,2.4,3.9,2.1,3.6,1.9c-0.2-0.1-1-0.5-1.3-0.6L3.2,2.8z"/>
				</g>
				<g id="Group_64" transform="translate(35.513 0.717)">
					<path id="Path_161" class="st3" d="M3.3,3.8c-0.2,0-0.3,0-0.5-0.1L1.3,3.2l1.9-0.5l0,0.1L1.5,3.2l1.4,0.4
						c0.3,0.1,0.7,0.1,1-0.1C4.2,3.3,4.6,3.2,5,3.3l0,0.1c-0.4-0.1-0.8,0-1.1,0.2C3.7,3.7,3.5,3.8,3.3,3.8z"/>
					<path id="Path_162" class="st3" d="M5,3.4L3.1,2.7l0,0L1.9,1.2l1.6,0.6c0.4,0.1,0.7,0.4,0.8,0.7l0,0c0,0,0,0.1,0,0.1
						C4.4,2.8,4.4,3,5,3.4L5,3.4z M3.1,2.7l1.6,0.5C4.5,3.1,4.3,2.9,4.2,2.6c0,0,0-0.1,0-0.1l0,0C4.1,2.1,3.8,1.9,3.4,1.8L2.1,1.3
						L3.1,2.7z"/>
				</g>
				<g id="Group_65" transform="translate(32.809 0.213)">
					<path id="Path_163" class="st3" d="M3.2,3.6c-0.1,0-0.2,0-0.3,0L1.3,3.2l1.8-0.7l0,0.1L1.5,3.2l1.4,0.3c0.3,0.1,0.7,0,1-0.2
						C4.1,3.1,4.4,3,4.7,3C4.8,3,4.9,3,5,3L5,3C4.9,3,4.8,3,4.8,3C4.4,3,4.1,3.1,3.9,3.4C3.7,3.5,3.5,3.6,3.2,3.6z"/>
					<path id="Path_164" class="st3" d="M5,3L3.1,2.6l0,0L1.7,1.2l1.6,0.4C3.7,1.6,4,1.9,4.2,2.2l0,0c0,0,0,0.1,0.1,0.1
						C4.3,2.6,4.4,2.8,5,3L5,3z M3.1,2.6l1.6,0.4C4.4,2.8,4.3,2.6,4.2,2.4c0,0,0-0.1-0.1-0.1l0,0C3.9,1.9,3.6,1.7,3.3,1.6L1.9,1.3
						L3.1,2.6z"/>
				</g>
				<g id="Group_66" transform="translate(30.074)">
					<path id="Path_165" class="st3" d="M3.1,3.5c-0.1,0-0.1,0-0.2,0L1.3,3.3L3,2.4l0,0.1L1.5,3.2l1.4,0.2c0.4,0,0.7-0.1,1-0.3
						c0.2-0.3,0.6-0.5,1-0.5H5v0.1H4.9c-0.4,0-0.7,0.1-1,0.4C3.7,3.4,3.4,3.5,3.1,3.5z"/>
					<path id="Path_166" class="st3" d="M5,2.7L3,2.5l0,0L1.5,1.2l0.1,0l1.5,0.2C3.5,1.4,3.8,1.7,4,2l0,0c0,0,0,0.1,0.1,0.1
						C4.2,2.3,4.3,2.5,5,2.7L5,2.7z M3,2.4l1.6,0.2C4.4,2.5,4.2,2.3,4.1,2.1C4,2.1,4,2,4,2C3.8,1.7,3.5,1.5,3.1,1.5L1.7,1.3L3,2.4z"
						/>
				</g>
			</g>
		</g>
	</g>
	<g id="Group_73" transform="translate(194.247 122.319)">
		<rect id="Rectangle_13" x="1.6" y="38.1" class="st4" width="38.1" height="3.5"/>
		<g id="Group_70" transform="translate(0.248)">
			<path id="Path_167" class="st2" d="M9.7,10.6v6.6H7.3v-6.8c0-1.3-0.7-2-1.8-2s-1.8,0.7-1.8,2v2.2h0.1c0.2-0.8,0.9-1.4,1.8-1.4
				c0.2,0,0.4,0,0.6,0.1v2.2c-0.2-0.1-0.3-0.1-0.5-0.1c-1.1,0-1.7,0.9-1.9,2.4v1.4H1.3v-6.6c0-2.8,1.5-4.3,4.2-4.3S9.7,7.9,9.7,10.6
				z"/>
			<path id="Path_168" class="st2" d="M11.9,14.2c0-1.6,0.7-2.7,1.8-3v0l-2.1-0.7c0.2-2.7,1.8-4.2,4.5-4.2c2.6,0,4.1,1.4,4.1,4v3.2
				c0,1.2,0.4,1.8,1.3,1.8c0.8,0,1.5-0.4,1.9-1V6.6h2.4v8.6c0,0.6,0.2,1.2,0.5,1.7v0l-2.4,0.5c-0.2-0.4-0.4-0.9-0.4-1.3h-0.1
				c-0.6,0.8-1.6,1.3-2.7,1.3c-1.8,0-2.9-1.3-2.9-3.3v-3.9c0.1-0.9-0.5-1.6-1.4-1.7c-0.1,0-0.2,0-0.3,0c-0.8-0.1-1.5,0.4-1.8,1.1v0
				l1.5,0.4v1.6c-0.9,0.2-1.4,1-1.3,1.9c0,1,0.4,1.8,1.4,1.8c0.3,0,0.5-0.1,0.8-0.2v2.1c-0.5,0.2-1,0.3-1.5,0.3
				c-1.6,0.1-3-1.1-3.1-2.7C11.8,14.5,11.8,14.4,11.9,14.2z"/>
			<path id="Path_169" class="st2" d="M27.6,9c0-0.3,0.1-0.7,0.2-1H30C30,8.2,30,8.4,30,8.6c0,0.5,0.3,0.7,0.9,0.7h1.5v2.1h-1.8
				C28.7,11.4,27.6,10.5,27.6,9z M27.6,14c0-0.3,0.1-0.7,0.2-1H30c0,0.2-0.1,0.4-0.1,0.6c0,0.5,0.3,0.7,0.9,0.7h1.5v2.1h-1.8
				C28.7,16.3,27.6,15.5,27.6,14z"/>
			<path id="Path_170" class="st2" d="M34.2,13.3c-0.1-1,0.6-2,1.7-2.1v0l-2.1-0.7c0-2.3,1.8-4.2,4.1-4.2c0.2,0,0.3,0,0.5,0
				c2.7,0,4.1,1.4,4.1,4v6.9H40v-7.1c0.1-0.9-0.6-1.6-1.5-1.7c-0.1,0-0.2,0-0.3,0c-0.8-0.1-1.6,0.4-1.9,1.1v0l1.5,0.4v1.6
				c-0.7,0.1-1.2,0.7-1.2,1.5v4.2h-2.4V13.3z"/>
			<path id="Path_171" class="st2" d="M47.5,9.8c0-0.9-0.4-1.3-1.2-1.3c-0.6,0-1.1,0.2-1.6,0.5L44,7.2c0.8-0.6,1.7-0.8,2.6-0.8
				c2.1,0,3.3,1.3,3.3,3.5v7.4h-2.4V9.8z"/>
			<path id="Path_172" class="st2" d="M60.4,6.6v7.1c0,2.5-1.5,3.8-4.3,3.8c-2.6,0-4.1-1.2-4.1-3.3c-0.1-0.8,0.2-1.5,0.8-2.1
				c-0.7-0.6-1-1.6-1-2.5c-0.2-1.6,1-3.1,2.6-3.2c0.2,0,0.4,0,0.6,0c0.5,0,1.1,0.1,1.6,0.2v2c-0.3-0.1-0.7-0.2-1-0.2
				c-0.9,0-1.4,0.4-1.4,1.1s0.5,1.1,1.4,1.1c0.3,0,0.7-0.1,1-0.2v2c-0.5,0.2-1,0.2-1.6,0.2c-0.1,0-0.3,0-0.4,0
				c-0.2,0.3-0.2,0.6-0.2,0.9c0,0.8,0.6,1.6,1.4,1.6c0.1,0,0.2,0,0.3,0c0.9,0.1,1.7-0.6,1.8-1.5c0-0.1,0-0.3,0-0.4v-7L60.4,6.6z"/>
			<path id="Path_173" class="st2" d="M61.9,17.2v-2.1c0.2,0.1,0.4,0.1,0.6,0.1c0.4,0,0.6-0.2,0.6-0.7v-1.2c0-1.1,0.3-1.8,1.5-2.1v0
				l-2.1-0.7c0-2.3,1.8-4.2,4.1-4.2c0.2,0,0.3,0,0.5,0c2.7,0,4.1,1.4,4.1,4v6.9h-2.4v-7.1c0.1-0.9-0.6-1.6-1.5-1.7
				c-0.1,0-0.2,0-0.3,0c-0.8-0.1-1.6,0.4-1.9,1.1v0l1.5,0.4v1.6c-0.8,0.2-1,0.7-1,1.5V15c0.2,1.2-0.6,2.2-1.8,2.4
				c-0.2,0-0.4,0-0.5,0C62.8,17.4,62.3,17.3,61.9,17.2z"/>
			<path id="Path_174" class="st2" d="M76.2,9.8c0-0.9-0.4-1.3-1.2-1.3c-0.6,0-1.1,0.2-1.6,0.5l-0.7-1.8c0.8-0.6,1.7-0.8,2.6-0.8
				c2.1,0,3.3,1.3,3.3,3.5v7.4h-2.4L76.2,9.8z"/>
			<path id="Path_175" class="st2" d="M81.2,9c0-0.4-0.2-0.5-0.5-0.5c-0.2,0-0.3,0-0.5,0.1v-2c0.4-0.1,0.8-0.2,1.2-0.2
				c1.3,0,2,0.8,2,2.3v2.5l-0.1,2.8h0.1l1.8-7.4H87l1.8,7.4h0.1l-0.1-2.8V6.6h2.3v10.7h-3l-1.4-5.5l-0.5-2h-0.1l-0.5,2l-1.4,5.5h-3
				L81.2,9z"/>
			<path id="Path_176" class="st2" d="M93.5,13.3V6.6h2.4v6.9c0,1.2,0.6,1.9,1.7,1.9s1.7-0.7,1.7-1.9V6.6h2.4v6.7
				c0,2.7-1.5,4.2-4.1,4.2S93.5,16,93.5,13.3z"/>
			<path id="Path_177" class="st2" d="M98.5,3.1c0-1.1,0.9-2,2-2s2,0.9,2,2s-0.9,2-2,2c0,0,0,0,0,0c-1.1,0-2-0.8-2-1.8
				C98.5,3.2,98.5,3.2,98.5,3.1z M101.3,3.1c0-0.4-0.4-0.8-0.8-0.7s-0.8,0.4-0.7,0.8c0,0.4,0.4,0.7,0.8,0.7
				C100.9,3.9,101.3,3.6,101.3,3.1C101.3,3.2,101.3,3.2,101.3,3.1L101.3,3.1z"/>
			<path id="Path_178" class="st2" d="M106.8,9.8c0-0.9-0.4-1.3-1.2-1.3c-0.6,0-1.1,0.2-1.6,0.5l-0.7-1.8c0.8-0.6,1.7-0.8,2.6-0.8
				c2.1,0,3.3,1.3,3.3,3.5v7.4h-2.4L106.8,9.8z"/>
			<path id="Path_179" class="st2" d="M111.5,13.3V6.6h2.4v6.9c0,1.2,0.6,1.9,1.7,1.9s1.7-0.7,1.7-1.9V6.6h2.4v6.7
				c0,2.7-1.5,4.2-4.1,4.2S111.5,16,111.5,13.3z"/>
			<path id="Path_180" class="st2" d="M115.4,2.8c0-0.3,0.1-0.7,0.2-1h2.1c-0.1,0.2-0.1,0.3-0.1,0.5c0,0.5,0.3,0.8,0.9,0.8h2.6v1.9
				h-3.4C116.3,4.9,115.4,4.3,115.4,2.8z"/>
			<path id="Path_181" class="st2" d="M121.7,12.2c0-3.8,1.7-5.9,4.9-5.9c2.7,0,4.2,1.5,4.2,4.2v6.7h-2.4v-6.7
				c0-1.3-0.7-2.1-1.8-2.1c-1.5,0-2.4,1.4-2.4,3.7c0,2.2,0.7,3.1,2,3.1c0.3,0,0.6-0.1,0.9-0.2v2.1c-0.5,0.2-1,0.3-1.5,0.3
				C123.1,17.4,121.7,15.5,121.7,12.2z"/>
		</g>
		<g id="Group_72" transform="translate(0 21.436)">
			<g id="Group_71">
				<path id="Path_182" class="st2" d="M2.8,9.1L2.8,9.1C2.8,9.3,2.7,9.6,2.6,9.8L1.3,9.5v0c0.2-0.3,0.3-0.6,0.3-0.9V4h1.3v4
					c0.3,0.4,0.7,0.6,1.1,0.6c0.5,0,0.7-0.3,0.7-1V4h1.3v4C6,8.9,5.4,9.7,4.5,9.8c-0.1,0-0.2,0-0.2,0C3.7,9.8,3.1,9.6,2.8,9.1z"/>
				<path id="Path_183" class="st2" d="M10.5,5.9c0.8,0.2,1.3,0.9,1.2,1.7v2.1h-1.3V7.9c0-0.7-0.3-1-0.8-1H8.6v2.8H7.3V4h1.3v1.8h0
					c0.9-0.3,1.7-1,2.2-1.9L12,4.3v0C11.7,5,11.2,5.6,10.5,5.9z"/>
				<path id="Path_184" class="st2" d="M14.6,5.8c0-0.5-0.2-0.7-0.7-0.7c-0.3,0-0.6,0.1-0.8,0.3l-0.4-1c0.4-0.3,0.9-0.4,1.4-0.4
					c0.9-0.1,1.7,0.6,1.8,1.5c0,0.1,0,0.2,0,0.3v3.9h-1.3V5.8z"/>
				<path id="Path_185" class="st2" d="M16.8,9.3l0.5-1c0.4,0.3,0.8,0.4,1.2,0.4c0.9,0,1.3-0.7,1.3-1.8S19.4,5,18.5,5
					c-0.4,0-0.9,0.2-1.2,0.4l-0.5-1c0.6-0.4,1.2-0.6,1.9-0.6c1.5,0,2.4,1.1,2.4,3s-0.9,3-2.4,3C18,9.8,17.4,9.6,16.8,9.3z"/>
				<path id="Path_186" class="st2" d="M16.9,2.2h4v1h-4V2.2z"/>
				<path id="Path_187" class="st2" d="M22.3,4h1.2v0.6h0c0.3-0.5,0.9-0.8,1.5-0.7c0.9,0,1.7,0.7,1.7,1.6c0,0.1,0,0.2,0,0.2v3.9
					h-1.3V6.1c0-0.7-0.3-1-0.8-1c-0.4,0-0.8,0.2-1.1,0.6v4h-1.3L22.3,4z"/>
				<path id="Path_188" class="st2" d="M32.4,4v3.8c0,1.3-0.8,2-2.3,2c-1.4,0-2.2-0.6-2.2-1.7c0-0.4,0.1-0.8,0.4-1.1
					c-0.4-0.3-0.6-0.8-0.5-1.3c-0.1-0.9,0.5-1.6,1.4-1.7c0.1,0,0.2,0,0.3,0c0.3,0,0.6,0,0.8,0.1v1.1c-0.2-0.1-0.4-0.1-0.5-0.1
					c-0.5,0-0.7,0.2-0.7,0.6s0.3,0.6,0.7,0.6c0.2,0,0.4,0,0.5-0.1v1.1c-0.3,0.1-0.6,0.1-0.8,0.1c-0.1,0-0.1,0-0.2,0
					c-0.1,0.1-0.1,0.3-0.1,0.5c0,0.4,0.3,0.8,0.8,0.9c0.1,0,0.1,0,0.2,0c0.5,0.1,0.9-0.3,1-0.8c0-0.1,0-0.1,0-0.2V4L32.4,4z"/>
				<path id="Path_189" class="st2" d="M35.2,5.8c0-0.5-0.2-0.7-0.7-0.7c-0.3,0-0.6,0.1-0.8,0.3l-0.4-1c0.4-0.3,0.9-0.4,1.4-0.4
					c0.9-0.1,1.7,0.6,1.8,1.5c0,0.1,0,0.2,0,0.3v3.9h-1.3V5.8z"/>
				<path id="Path_190" class="st2" d="M42,6v3.8h-1.3V7.4c-0.3-0.1-0.6-0.2-0.9-0.2c-0.6,0-1,0.3-1,0.8c0,0.4,0.3,0.7,0.8,0.7
					c0.2,0,0.4,0,0.5-0.1v1.1c-0.3,0.1-0.5,0.1-0.8,0.1c-0.9,0.1-1.8-0.6-1.8-1.6c0-0.1,0-0.2,0-0.2c0-1,0.8-1.9,1.8-1.9
					c0.1,0,0.2,0,0.3,0c0.4,0,0.7,0.1,1.1,0.2V6c0-0.6-0.4-1-1.1-1c-0.5,0-0.9,0.1-1.3,0.4l-0.5-1c0.6-0.4,1.3-0.6,2-0.6
					C41.2,3.9,42,4.6,42,6z"/>
				<path id="Path_191" class="st2" d="M39.6,2c0-0.2,0-0.4,0.1-0.5h1.1c0,0.1,0,0.2,0,0.3c0,0.3,0.2,0.4,0.5,0.4h1.4v1h-1.8
					C40.1,3.2,39.6,2.8,39.6,2z"/>
				<path id="Path_192" class="st2" d="M47.7,4v3.8c0,1.3-0.8,2-2.3,2c-1.4,0-2.2-0.6-2.2-1.7c0-0.4,0.1-0.8,0.4-1.1
					c-0.4-0.3-0.6-0.8-0.5-1.3C43,4.8,43.7,4.1,44.5,4c0.1,0,0.2,0,0.3,0c0.3,0,0.6,0,0.8,0.1v1.1c-0.2-0.1-0.4-0.1-0.5-0.1
					c-0.5,0-0.7,0.2-0.7,0.6s0.3,0.6,0.7,0.6c0.2,0,0.4,0,0.5-0.1v1.1c-0.3,0.1-0.6,0.1-0.8,0.1c-0.1,0-0.1,0-0.2,0
					c-0.1,0.1-0.1,0.3-0.1,0.5c0,0.4,0.3,0.8,0.8,0.9c0.1,0,0.1,0,0.2,0c0.5,0.1,0.9-0.3,1-0.8c0-0.1,0-0.1,0-0.2V4L47.7,4z"/>
				<path id="Path_193" class="st2" d="M53.2,5.1c0.2,0.4,0.3,0.7,0.3,1.1v3.5h-1.3V6.1c0-0.7-0.3-1.1-1-1.1s-1,0.4-1,1.1v1.2h0
					c0.1-0.4,0.5-0.7,0.9-0.8c0.1,0,0.2,0,0.3,0.1v1.2c-0.1,0-0.2,0-0.3,0c-0.6,0-0.9,0.5-1,1.3v0.7H49V6.2
					c-0.1-1.1,0.7-2.1,1.8-2.3c0.2,0,0.3,0,0.5,0c0.4,0,0.9,0.1,1.2,0.3c0.2-0.2,0.3-0.4,0.4-0.7L54,3.9v0
					C53.8,4.4,53.6,4.8,53.2,5.1z"/>
				<path id="Path_194" class="st2" d="M54.5,9.3l0.5-1c0.5,0.3,1,0.5,1.6,0.5c0.5,0,0.9-0.2,0.9-0.5s-0.3-0.5-1.2-1
					c-1.2-0.6-1.5-1.1-1.5-1.8c0-1,0.7-1.6,1.8-1.6c0.7,0,1.4,0.2,2,0.6l-0.5,1C57.6,5.1,57.1,5,56.6,5c-0.5,0-0.7,0.2-0.7,0.4
					c0,0.3,0.4,0.5,1.2,0.9c1.2,0.6,1.6,1.1,1.6,1.9c0,1.1-0.7,1.7-2.1,1.7C55.8,9.8,55.1,9.6,54.5,9.3z"/>
				<path id="Path_195" class="st2" d="M58.6,1.3v1.9h-4v-1h2.8V1.3L58.6,1.3z"/>
				<path id="Path_196" class="st2" d="M59.7,8V4h1.3v3.6c0,0.7,0.2,1,0.7,1c0.4,0,0.8-0.2,1.1-0.6V4H64v4.6c0,0.3,0.1,0.6,0.3,0.9
					v0L63,9.8c-0.1-0.2-0.2-0.4-0.2-0.7h0c-0.3,0.5-0.9,0.7-1.5,0.7c-0.9,0-1.6-0.7-1.6-1.6C59.6,8.2,59.6,8.1,59.7,8z"/>
				<path id="Path_197" class="st2" d="M69.9,6.2v3.5h-1.3V6.1c0-0.7-0.3-1.1-1-1.1s-1,0.4-1,1.1v1.2h0c0.1-0.4,0.5-0.7,0.9-0.8
					c0.1,0,0.2,0,0.3,0.1v1.2c-0.1,0-0.2,0-0.3,0c-0.6,0-0.9,0.5-1,1.3v0.7h-1.3V6.2c0-1.2,1-2.2,2.2-2.2
					C68.9,3.9,69.9,4.9,69.9,6.2C69.9,6.2,69.9,6.2,69.9,6.2L69.9,6.2z"/>
				<path id="Path_198" class="st2" d="M70.9,9.3l0.5-1c0.5,0.3,1,0.5,1.6,0.5c0.5,0,0.9-0.2,0.9-0.5s-0.3-0.5-1.2-1
					C71.4,6.7,71,6.2,71,5.5c0-1,0.7-1.6,1.8-1.6c0.7,0,1.4,0.2,2,0.6l-0.5,1C74,5.1,73.5,5,73,5c-0.5,0-0.7,0.2-0.7,0.4
					c0,0.3,0.4,0.5,1.2,0.9C74.7,6.9,75,7.4,75,8.2c0,1.1-0.7,1.7-2.1,1.7C72.2,9.8,71.5,9.6,70.9,9.3z"/>
				<path id="Path_199" class="st2" d="M71,2.2h4v1h-4V2.2z"/>
				<path id="Path_200" class="st2" d="M76,8V4h1.3v3.6c0,0.7,0.2,1,0.7,1c0.4,0,0.8-0.2,1.1-0.6V4h1.3v4.6c0,0.3,0.1,0.6,0.3,0.9v0
					l-1.3,0.3c-0.1-0.2-0.2-0.4-0.2-0.7h0c-0.3,0.5-0.9,0.7-1.5,0.7c-0.9,0-1.6-0.7-1.6-1.6C76,8.2,76,8.1,76,8z"/>
				<path id="Path_201" class="st2" d="M81.9,4h1.2v0.6h0c0.3-0.5,0.9-0.8,1.5-0.7c0.9,0,1.7,0.7,1.7,1.6c0,0.1,0,0.2,0,0.2v3.9
					h-1.3V6.1c0-0.7-0.3-1-0.8-1c-0.4,0-0.8,0.2-1.1,0.6v4h-1.3L81.9,4z"/>
				<path id="Path_202" class="st2" d="M87.3,9.3l0.5-1c0.5,0.3,1,0.5,1.6,0.5c0.5,0,0.9-0.2,0.9-0.5s-0.3-0.5-1.2-1
					c-1.2-0.6-1.5-1.1-1.5-1.8c0-1,0.7-1.6,1.8-1.6c0.7,0,1.4,0.2,2,0.6l-0.5,1C90.4,5.1,89.9,5,89.4,5c-0.5,0-0.7,0.2-0.7,0.4
					c0,0.3,0.4,0.5,1.2,0.9c1.2,0.6,1.6,1.1,1.6,1.9c0,1.1-0.7,1.7-2.1,1.7C88.7,9.8,87.9,9.6,87.3,9.3z"/>
				<path id="Path_203" class="st2" d="M92.1,9.3l0.5-1c0.4,0.3,0.8,0.4,1.2,0.4c0.9,0,1.3-0.7,1.3-1.8S94.6,5,93.8,5
					c-0.4,0-0.9,0.2-1.2,0.4l-0.5-1c0.6-0.4,1.2-0.6,1.9-0.6c1.5,0,2.4,1.1,2.4,3s-0.9,3-2.4,3C93.3,9.8,92.6,9.6,92.1,9.3z"/>
				<path id="Path_204" class="st2" d="M92.2,2.2h4v1h-4V2.2z"/>
				<path id="Path_205" class="st2" d="M99.6,8.6c0.1,0,0.2,0,0.3-0.1v1.1c-0.2,0.1-0.5,0.1-0.7,0.1c-0.9,0-1.4-0.5-1.4-1.4V4.2
					c0-0.7-0.3-0.9-1.1-1V3c-0.1-0.9,0.6-1.7,1.5-1.8c0.1,0,0.3,0,0.4,0c0.6,0,1.1,0.2,1.6,0.5l-0.4,0.9c-0.4-0.3-0.8-0.4-1.2-0.4
					c-0.4,0-0.6,0.1-0.7,0.5c0.9,0.2,1.2,0.7,1.2,1.6v3.9C99.1,8.5,99.3,8.6,99.6,8.6z"/>
				<path id="Path_206" class="st2" d="M100.5,9.3l0.5-1c0.5,0.3,1,0.5,1.6,0.5c0.5,0,0.9-0.2,0.9-0.5s-0.3-0.5-1.2-1
					c-1.2-0.6-1.5-1.1-1.5-1.8c0-1,0.7-1.6,1.8-1.6c0.7,0,1.4,0.2,2,0.6l-0.5,1c-0.4-0.3-0.9-0.5-1.4-0.5c-0.5,0-0.7,0.2-0.7,0.4
					c0,0.3,0.4,0.5,1.2,0.9c1.2,0.6,1.6,1.1,1.6,1.9c0,1.1-0.7,1.7-2.1,1.7C101.8,9.8,101.1,9.6,100.5,9.3z"/>
				<path id="Path_207" class="st2" d="M105.4,7c0-1.7,0.7-2.8,1.9-3.1l0.6,0.6h0l0.6-0.6c1.1,0.2,1.8,1.2,1.7,2.3v1.9
					c0.2,0.3,0.6,0.5,1,0.6c0.5,0,0.7-0.3,0.7-0.9V4h1.3v4c0.1,0.9-0.5,1.6-1.3,1.7c-0.1,0-0.2,0-0.2,0c-0.6,0-1.1-0.3-1.4-0.7h0
					c0,0.2-0.1,0.5-0.2,0.7l-1.3-0.3v0c0.2-0.3,0.3-0.6,0.3-0.9V6.2c0-0.5-0.2-0.8-0.4-1L108,5.7h-0.2l-0.4-0.4
					c-0.5,0.5-0.7,1.1-0.6,1.8c0,1.1,0.4,1.6,1,1.6c0.2,0,0.3,0,0.5-0.1v1.1c-0.3,0.1-0.5,0.1-0.8,0.1C106.2,9.8,105.4,8.8,105.4,7z
					"/>
			</g>
		</g>
	</g>
</g>
</svg>
